<svg xmlns="http://www.w3.org/2000/svg" xmlns:xlink="http://www.w3.org/1999/xlink" width="181" height="119"><defs><path id="path-1" d="M0 .015h40.984V46.08H0z"/></defs><g id="I.--Modules" fill="none" fill-rule="evenodd" stroke="none" stroke-width="1"><g id="Headers-and-Footers-/-Page-Footer---Homepage" transform="translate(-96 -63)"><g id="Group-5" transform="translate(96 63)"><g id="Group-42-Copy"><g id="Group-3" transform="translate(0 .06)"><mask id="mask-2" fill="#fff"><use xlink:href="#path-1"/></mask><path id="Fill-1" fill="#9B8441" d="M25.934 24.818c.741.004.911-.146.922-.814.013-.76-.164-.963-.845-.97-.718-.008-.941.22-.938.96.003.621.21.82.86.824M3.838 29.99c-.679-.009-.88.185-.895.864-.018.75.17.966.851.97.69.005.892-.188.896-.86.006-.768-.167-.965-.852-.974m25.512-6.955c-.67.002-.867.207-.86.897.007.72.19.894.935.885.696-.009.865-.185.857-.89-.007-.722-.188-.895-.932-.892M23.44 34.4c-.003-.718-.182-.91-.85-.915-.734-.005-.9.163-.903.913-.003.736.179.918.91.914.677-.004.845-.186.843-.912m-14.53 7.875c.694.014.915-.207.92-.92.006-.665-.212-.892-.872-.909-.674-.017-.892.189-.906.855-.015.752.169.96.857.974m5.083-27.898c.706.014.934-.203.94-.897.006-.69-.209-.932-.837-.94-.697-.01-.924.209-.937.908-.014.695.185.917.834.93m-2.457 6.114c.01-.724-.192-.937-.89-.942-.706-.005-.892.17-.903.85-.011.72.204.955.885.965.654.01.9-.226.908-.873m-5.117 20.86c.003-.665-.219-.896-.874-.91-.692-.015-.912.21-.91.927 0 .704.189.9.86.903.708.003.921-.21.924-.92m17.854-30.534c-.709.003-.89.195-.892.943-.001.664.22.882.891.88.675-.002.913-.253.903-.954-.009-.669-.22-.871-.902-.869m-16.163 20.1c.002-.719-.204-.933-.895-.93-.677.002-.875.198-.885.875-.01.725.198.956.868.962.712.006.91-.19.912-.907m28.974-7.824c0-.91-.004-1.82.002-2.73.004-.56-.228-.821-.806-.824-.567-.003-.974.109-.973.79.001 1.82 0 3.64.007 5.46.003.608.342.824.907.815.569-.008.878-.227.868-.847-.014-.887-.003-1.776-.005-2.664M18.336 12.539c0-1.432.006-2.864-.002-4.296-.004-.754-.18-.924-.905-.92-.696.002-.881.197-.88 1.032.002 2.842.017 5.684.031 8.526.004.805.164.99.832 1.001.717.013.917-.19.92-.982.008-1.454.003-2.907.004-4.361m-3.408 14.855h-.022c0-1.149.008-2.298-.003-3.446-.008-.795-.141-.92-.886-.917-.712.003-.853.154-.855.953-.004 1.713-.001 3.425-.003 5.138 0 .864 0 .864-.818.867-.594.001-1.189.009-1.783.002-.596-.007-.838.297-.823.89.016.694.197.932.844.94 1.168.014 2.336-.01 3.503.006.594.009.854-.256.849-.857-.011-1.192-.003-2.384-.003-3.576M9.75 38.769v-.005c2.019 0 4.038-.01 6.056.006.6.005.855-.258.841-.86-.015-.693-.022-1.389.01-2.082.007-.167.15-.428.285-.473.861-.283 1.288.019 1.324.923.022.552.283.764.803.77.519.007.96-.06.976-.721.016-.673.004-1.345.012-2.018.007-.572-.258-.826-.82-.821q-1.785.02-3.57-.005c-.568-.007-.82.268-.822.824-.002.673-.03 1.347.005 2.018.027.515-.152.673-.654.67-2.91-.022-5.822-.01-8.734-.017-.738-.001-.725-.035-.76-1.121-.022-.662.402-.538.765-.54 2.317-.004 4.633.005 6.95-.008.662-.004.803-.218.809-.954.005-.594-.229-.87-.835-.868-2.868.012-5.737 0-8.606.005-.7.002-.84.157-.844.905q-.012 1.725 0 3.45c.005.808.122.92.943.92 1.956.004 3.91.002 5.866.002M7.206 14.377c1.149 0 2.297.006 3.445-.002.705-.004.872-.174.881-.878.009-.694.016-1.39-.001-2.084-.01-.394.147-.543.527-.535.68.014 1.361-.02 2.04.005.57.02.832-.238.833-.803q0-1.856-.002-3.712c-.002-.636-.369-.786-.925-.778-.546.007-.851.2-.846.79.006.608-.035 1.219.012 1.823.05.64-.143.882-.81.87-.618-.01-.873-.145-.84-.835.055-1.17.006-2.344.016-3.516.005-.583-.224-.9-.825-.896-1.212.008-2.424.006-3.636.002-.51-.001-.743.281-.745.77q-.007 2.768 0 5.535c.002.506.26.754.76.749.68-.007 1.362.029 2.04-.013.685-.043.608.404.611.846.003.452.049.857-.626.833a67 67 0 0 0-3.763-.006c-.496.01-.657-.14-.645-.668.037-1.78.027-3.56.02-5.34-.003-.769-.178-.932-.897-.935-.723-.002-.876.142-.881.936-.013 2.323-.014 4.646-.013 6.969 0 .686.188.867.89.87 1.126.007 2.253.002 3.38.003m26.455 8.701h-.005c0-1.498-.006-2.997.002-4.495.003-.535-.217-.8-.758-.812-.77-.017-.986.17-.988.98-.006 2.323-.017 4.647.007 6.97.006.575-.127.836-.745.78-.612-.054-1.232-.005-1.849-.011-.587-.006-.853.278-.84.88.015.715-.006 1.432.003 2.149.004.324-.11.49-.445.47a4 4 0 0 0-.638.002c-.419.04-.564-.147-.55-.566.022-.694-.007-1.39.007-2.085.011-.57-.246-.852-.8-.853-1.765-.002-3.53-.013-5.295.006-.643.007-.822.269-.815.97.007.583.242.878.85.867 1.213-.022 2.427.03 3.637-.02.741-.03.613.444.634.889.023.483-.008.82-.653.806-1.829-.04-3.658-.026-5.487-.007-.43.004-.614-.113-.606-.582q.033-1.987 0-3.973c-.01-.496.187-.64.642-.632 1.212.02 2.425-.007 3.636.013.598.01.85-.241.839-.854-.014-.762-.106-.935-.801-.941-1.786-.016-3.573.005-5.359.008-.555 0-.74.33-.74.839.004 2.323-.005 4.647.015 6.97.007.844.168.978.992.98 2.233.004 4.466.023 6.699-.012.63-.01.873.154.837.831-.04.742.187.915.913.905.699-.01.889-.177.851-.968-.028-.61.181-.804.76-.764.613.042 1.232 0 1.849.008.56.007.822-.272.82-.834 0-.695.021-1.39-.002-2.084-.016-.46.164-.611.601-.592.637.028 1.276.012 1.914.003.726-.01.862-.143.866-.876.007-1.455.002-2.91.002-4.365m-28.93 3.409v-.795q.002-4.071 0-8.142c0-.26-.013-.52-.024-.78-.028-.656-.448-.742-.973-.732-.523.01-.796.23-.796.779q.003 5.374 0 10.747c0 .508.234.76.74.76q3.54-.008 7.08 0c.534 0 .778-.255.775-.796q-.009-1.824.006-3.647c.006-.611-.283-.86-.866-.845-.659.018-1.319-.013-1.977.008-.393.012-.59-.1-.585-.544.016-1.367.01-2.735.003-4.103-.002-.342.104-.523.474-.52q2.041.019 4.083.005c.36-.003.494.153.488.506-.01.63-.004 1.26 0 1.889.007.959.132 1.086 1.075 1.087q6.57.002 13.142.003c.68 0 1.361.015 2.04-.005.677-.02.863-.224.865-.922a693 693 0 0 0-.002-5.21c-.004-.768-.144-.904-.908-.908-1.02-.007-2.04 0-3.062 0-1.167.001-1.183 0-1.231 1.166-.018.418-.162.576-.572.562-.68-.023-1.363-.039-2.04.005-.567.037-.736-.174-.726-.742.03-1.758.016-3.518.01-5.276-.001-.816-.262-1.036-1.05-.974-.622.049-.752.438-.75.983.006 2.91-.017 5.819.014 8.728.007.643-.193.814-.798.791-1.21-.044-2.423-.011-3.635-.015-.183 0-.365-.028-.599-.047 0-.923.005-1.79-.001-2.656-.004-.516-.229-.806-.776-.805-2.36.008-4.72.003-7.08.003-.498 0-.747.259-.747.764q.002 3.647.003 7.295c0 .49.243.712.711.71.68-.001 1.363.031 2.041-.007.504-.028.713.153.659.665-.02.194.047.416-.025.58-.076.173-.267.413-.412.416-1.486.03-2.973.019-4.573.019M0 23.825c.126-4.929.175-9.162.365-13.39C.472 8.06.7 5.676 1.5 3.403 2.493.576 4.61-.533 7.45.27c2.927.825 5.63 2.193 8.302 3.618 7.468 3.981 14.672 8.403 21.393 13.609.943.73 1.862 1.53 2.644 2.431 1.534 1.77 1.628 4.412.067 6.14-1.241 1.373-2.71 2.562-4.193 3.671-6.854 5.125-14.132 9.55-21.729 13.416-2.024 1.03-4.143 1.931-6.306 2.592-3.338 1.02-5.505-.318-6.355-3.767-.391-1.59-.694-3.231-.78-4.863C.25 32.458.14 27.794 0 23.825" mask="url('#mask-2')"/></g><path id="Combined-Shape" fill="#CBC592" d="M8.957 40.507c.66.017.878.243.873.909-.006.713-.227.934-.922.92-.688-.013-.872-.222-.857-.974.014-.667.232-.872.906-.855m-3.414-.004c.655.013.877.245.874.91-.003.71-.216.922-.924.92-.671-.003-.86-.2-.86-.903-.002-.717.218-.942.91-.927m10.124-6.959c1.19.017 2.38.016 3.57.005.562-.006.827.25.82.82-.009.673.004 1.346-.012 2.018-.016.662-.457.729-.976.722-.52-.006-.781-.218-.803-.77-.036-.905-.463-1.206-1.324-.923-.135.045-.278.306-.286.473a31 31 0 0 0-.009 2.082c.014.602-.242.864-.84.86-2.02-.016-4.038-.006-6.057-.006v.004c-1.955 0-3.91.003-5.866 0-.822-.002-.938-.113-.943-.921q-.012-1.725 0-3.45c.005-.748.144-.904.844-.905 2.869-.005 5.737.007 8.606-.005.606-.003.84.274.835.868-.006.736-.147.95-.81.953-2.316.014-4.632.004-6.949.01-.363 0-.787-.123-.765.538.035 1.087.021 1.12.76 1.122 2.912.006 5.823-.005 8.734.016.502.004.681-.154.654-.67-.035-.67-.007-1.344-.005-2.017.003-.556.254-.832.822-.824m6.923.002c.667.004.846.197.849.915.002.726-.166.908-.842.912-.732.004-.914-.178-.911-.915.003-.75.17-.917.904-.912M32.9 17.832c.54.012.761.276.758.812-.008 1.498-.002 2.996-.002 4.495h.005c0 1.455.005 2.91-.002 4.365-.004.732-.14.866-.866.876-.638.009-1.277.024-1.914-.004-.437-.019-.617.133-.601.592.023.695.002 1.39.003 2.085 0 .562-.262.84-.821.834-.617-.008-1.236.034-1.85-.009-.578-.04-.787.154-.759.764.038.791-.152.959-.851.969-.726.01-.953-.163-.913-.905.036-.678-.207-.841-.837-.831-2.233.035-4.466.015-6.7.011-.823-.001-.984-.135-.99-.979-.02-2.323-.012-4.647-.016-6.97 0-.508.185-.839.74-.84l3.573-.013q.892-.002 1.786.005c.695.007.787.18.8.942.012.612-.24.864-.838.854-1.211-.02-2.424.007-3.636-.013-.455-.008-.651.135-.642.631q.033 1.987 0 3.974c-.008.468.176.586.606.582a171 171 0 0 1 5.487.006c.645.015.676-.322.653-.805-.021-.446.107-.92-.634-.89-1.21.05-2.424-.001-3.636.02-.609.011-.844-.283-.85-.866-.008-.702.171-.963.814-.97 1.765-.02 3.53-.008 5.295-.006.554 0 .811.283.8.853-.014.695.015 1.39-.007 2.085-.014.419.131.605.55.565.211-.02.426-.015.638-.002.335.02.45-.146.445-.47-.009-.716.012-1.433-.004-2.15-.012-.6.254-.884.841-.878.617.006 1.237-.044 1.85.011.617.056.75-.205.744-.78-.024-2.324-.013-4.647-.007-6.97.002-.81.218-.998.988-.98m-18.883 5.26c.745-.002.878.122.886.917.011 1.148.003 2.297.003 3.446h.022c0 1.192-.008 2.384.003 3.576.005.6-.255.865-.849.857-1.167-.017-2.335.007-3.503-.006-.647-.008-.828-.247-.845-.941-.014-.593.228-.897.824-.89.594.007 1.189 0 1.783-.002.774-.002.816-.002.818-.737v-.13c.001-1.712-.001-3.425.003-5.137.002-.8.143-.95.855-.953m-10.18 6.96c.685.009.858.206.852.973-.004.673-.205.866-.896.861-.681-.005-.87-.22-.851-.97.016-.68.216-.873.895-.864m3.376-.004c.691-.002.897.212.895.93-.003.717-.2.914-.912.907-.67-.006-.878-.236-.868-.96.01-.679.208-.874.885-.877m14.538-19.95c.004 1.758.02 3.517-.011 5.275-.01.569.16.78.726.743.677-.044 1.36-.028 2.04-.005.41.014.554-.144.572-.562.048-1.165.064-1.165 1.231-1.166 1.021-.001 2.042-.007 3.062 0 .764.004.904.14.908.907q.01 2.606.002 5.21c-.002.699-.188.903-.864.923-.68.02-1.36.004-2.041.004q-6.57 0-13.141-.003c-.944 0-1.069-.128-1.076-1.087-.004-.63-.01-1.259 0-1.888.006-.353-.129-.509-.488-.506q-2.042.014-4.083-.005c-.37-.003-.476.177-.474.52.007 1.367.013 2.735-.003 4.103-.005.444.192.556.585.543.658-.02 1.318.01 1.977-.007.583-.016.872.233.866.844q-.013 1.824-.006 3.648c.003.541-.241.796-.774.795a1929 1929 0 0 0-7.081 0c-.506 0-.74-.251-.74-.76q.003-5.373 0-10.747c0-.548.273-.769.796-.778.525-.01.945.075.973.73.01.26.024.521.024.781l.001 4.071v4.867c1.6 0 3.087.011 4.573-.02.145-.002.336-.243.412-.416.072-.164.004-.385.025-.579.054-.512-.155-.693-.659-.665-.678.038-1.36.006-2.04.007-.469.001-.712-.22-.712-.71q-.001-3.648-.003-7.295c0-.505.249-.764.746-.764 2.36 0 4.72.004 7.081-.003.547-.002.772.289.776.804.006.867.001 1.734.001 2.656.234.02.416.047.599.047 1.212.004 2.425-.028 3.635.016.605.022.805-.149.798-.791-.031-2.91-.008-5.819-.014-8.728-.002-.545.128-.934.75-.983.788-.063 1.049.158 1.05.973M36.278 19.6c.578.003.81.264.806.824-.006.91-.002 1.82-.001 2.73 0 .888-.01 1.776.004 2.664.01.62-.3.839-.867.847-.566.008-.905-.208-.908-.816-.007-1.82-.006-3.64-.007-5.459 0-.682.406-.793.973-.79m-10.267 3.493c.681.007.858.21.845.97-.011.669-.181.819-.922.814-.65-.003-.858-.202-.86-.823-.004-.74.219-.969.937-.96m3.338.002c.744-.003.925.17.932.892.008.706-.161.882-.857.89-.745.01-.928-.164-.935-.885-.007-.689.19-.894.86-.897m-18.704-3.485c.697.004.898.218.889.941-.009.648-.254.884-.908.874-.682-.01-.896-.245-.885-.965.01-.68.197-.855.904-.85m16.4-3.351c-.12.032-.128.524-.182.806a.6.6 0 0 0-.002.195c.072.557-.192.704-.702.69-1.146-.029-2.293-.01-3.44-.009-1.004.001-.982.002-.978 1.051.002.483.166.644.635.629.912-.03 1.826-.01 2.74-.011.955 0 1.911-.008 2.867.004.337.004.514-.097.507-.477-.015-.824.003-1.648-.015-2.472-.003-.15-.103-.42-.178-.427-.417-.041-.857-.084-1.251.02M17.43 7.383c.724-.003.901.166.905.92.008 1.432.002 2.865.001 4.297 0 1.453.005 2.907-.002 4.36-.004.793-.203.995-.921.983-.668-.012-.828-.196-.832-1.001-.014-2.842-.03-5.684-.032-8.527 0-.834.185-1.029.881-1.032m-6.718-3.496c.601-.004.83.313.825.896-.01 1.172.039 2.346-.016 3.516-.033.69.222.825.84.835.667.011.86-.23.81-.87-.047-.605-.006-1.215-.012-1.823-.005-.59.3-.784.846-.79.556-.008.923.142.925.778q.003 1.855.002 3.712c0 .565-.262.823-.833.802-.679-.025-1.36.01-2.04-.005-.38-.008-.537.142-.527.536.017.694.01 1.39.001 2.084-.009.704-.176.873-.881.878-1.148.008-2.296.002-3.445.001-1.127 0-2.254.004-3.38-.002-.702-.004-.89-.184-.89-.87-.001-2.324 0-4.647.013-6.97.004-.794.158-.938.881-.935.72.002.894.166.897.934.007 1.78.017 3.561-.02 5.34-.012.528.149.679.645.668a67 67 0 0 1 3.763.007c.633.022.632-.332.627-.75v-.083c-.004-.442.073-.89-.612-.847-.678.042-1.36.007-2.04.013-.5.005-.758-.243-.76-.748a924 924 0 0 1 0-5.536c.002-.488.234-.77.745-.769q1.818.008 3.636-.002m3.383 8.713c.628.009.843.25.837.941-.006.694-.234.91-.94.897-.649-.013-.848-.235-.834-.93.013-.698.24-.918.937-.908m10.177-1.72c.683-.003.893.2.902.867.01.702-.228.953-.903.955-.67.002-.892-.217-.891-.88.001-.748.183-.94.892-.943M8.11 6.251c.015.693.039 1.39-.012 2.08-.047.65.21.825.807.79.828-.048.83-.015.833-.887v-.846h-.005c0-.39-.012-.78.004-1.17.013-.353-.112-.531-.477-.506a4 4 0 0 1-.636 0c-.395-.032-.523.157-.514.539"/><path id="Fill-40" fill="#9B8441" d="M9.739 7.39v.845c-.003.872-.005.839-.833.887-.597.035-.854-.14-.807-.79.05-.69.027-1.387.012-2.08-.009-.382.12-.571.514-.538.21.017.425.013.636-.001.365-.025.49.153.477.506-.016.39-.004.78-.004 1.17z"/><path id="Fill-38" fill="#9B853E" d="M25.115 19.612c-.913 0-1.827-.02-2.74.01-.468.015-.632-.146-.634-.629-.004-1.05-.026-1.05.978-1.05 1.147-.002 2.294-.02 3.44.009.51.013.774-.134.702-.691a.6.6 0 0 1 .002-.195c.054-.282.061-.774.183-.806.394-.105.834-.062 1.25-.02.076.007.176.276.18.426.017.824 0 1.648.014 2.472.007.38-.17.481-.507.477-.956-.012-1.912-.004-2.868-.003"/></g><path id="AbuDhabiCommercialProperties" fill="#FFF" fill-rule="nonzero" d="m22.33 117.048.6-1.777h2.49l.6 1.777h1.33l-2.5-6.93H23.5l-2.5 6.93zm2.77-2.802h-1.86l.63-1.854c.14-.39.3-1.074.3-1.074h.02s.15.683.28 1.074zm5.68 2.919c1.35 0 2.34-1.025 2.34-2.606 0-1.543-.88-2.607-2.26-2.607-1.08 0-1.53.723-1.53.723h-.02s.02-.176.02-.42v-2.138h-1.27v6.93h1.2v-.282c0-.196-.02-.342-.02-.342h.02s.46.742 1.52.742m-.22-1.045c-.85 0-1.27-.761-1.27-1.532 0-1.103.62-1.572 1.28-1.572.75 0 1.27.615 1.27 1.562 0 .986-.58 1.542-1.28 1.542m5.31 1.045c.869 0 1.519-.517 1.769-1.035h.02s-.02.156-.02.352v.566h1.22v-4.979h-1.27v2.285c0 .888-.51 1.679-1.43 1.679-.63 0-.79-.41-.79-1.016v-2.948H34.1v3.202c0 1.357.68 1.894 1.77 1.894m9.438-.117c2.19 0 3.62-1.289 3.62-3.475s-1.43-3.456-3.62-3.456h-2.42v6.93zm-.07-1.084h-1.06v-4.763h1.06c1.42 0 2.36.83 2.36 2.372 0 1.561-.92 2.391-2.36 2.391m6.11 1.084v-2.284c0-.235.02-.45.08-.645.19-.605.71-1.034 1.38-1.034.65 0 .81.41.81 1.015v2.948h1.26v-3.202c0-1.318-.64-1.894-1.77-1.894-.89 0-1.51.508-1.76.986h-.02s.02-.176.02-.42v-2.4h-1.27v6.93zm6.16.117c1.16 0 1.56-.879 1.55-.879h.02s-.02.157-.02.352v.41h1.17v-3.114c0-1.26-.78-1.982-2.12-1.982-1.21 0-2 .615-2 .615l.48.889s.67-.479 1.4-.479c.56 0 .98.225.98.879v.068h-.17c-.83 0-3.02.107-3.02 1.689 0 .995.82 1.552 1.73 1.552m.32-.967c-.52 0-.77-.312-.77-.644 0-.693 1.05-.78 1.7-.78h.22v.116c0 .606-.48 1.308-1.15 1.308m6.44.967c1.35 0 2.34-1.025 2.34-2.606 0-1.543-.88-2.607-2.26-2.607-1.08 0-1.53.723-1.53.723h-.02s.02-.176.02-.42v-2.138h-1.27v6.93h1.2v-.282c0-.196-.02-.342-.02-.342h.02s.46.742 1.52.742m-.22-1.045c-.85 0-1.27-.761-1.27-1.532 0-1.103.62-1.572 1.28-1.572.75 0 1.27.615 1.27 1.562 0 .986-.58 1.542-1.28 1.542m4.869-4.9v-1.103h-1.26v1.103zm.01 5.828v-4.979h-1.27v4.979zm7.21.117c1.81 0 2.79-1.123 2.79-1.123l-.68-.908s-.83.879-2.06.879c-1.48 0-2.39-1.162-2.39-2.48 0-1.288.88-2.381 2.38-2.381 1.13 0 1.94.732 1.94.732l.62-.937-.004-.003c-.057-.06-.944-.944-2.616-.944-2.09 0-3.65 1.542-3.65 3.553 0 2.04 1.5 3.612 3.67 3.612m6.21 0c1.549 0 2.799-1.074 2.799-2.606 0-1.523-1.25-2.607-2.81-2.607-1.55 0-2.8 1.084-2.8 2.607 0 1.532 1.25 2.606 2.81 2.606m0-1.054c-.83 0-1.52-.625-1.52-1.552 0-.918.69-1.552 1.52-1.552.82 0 1.509.634 1.509 1.552 0 .927-.69 1.552-1.51 1.552m5.089.937v-2.187c0-.224.01-.449.06-.634.16-.635.59-1.142 1.25-1.142.6 0 .69.458.69.995v2.968h1.27v-2.187c0-.234.01-.449.06-.644.15-.625.58-1.132 1.23-1.132.59 0 .7.43.7.995v2.968h1.27v-3.202c0-1.308-.61-1.894-1.67-1.894-.8 0-1.46.488-1.74 1.025h-.02c-.21-.673-.71-1.025-1.49-1.025-.8 0-1.41.547-1.66 1.035h-.02s.02-.156.02-.342v-.576h-1.22v4.979zm9.13 0v-2.187c0-.224.01-.449.06-.634.16-.635.59-1.142 1.25-1.142.6 0 .69.458.69.995v2.968h1.269v-2.187c0-.234.01-.449.06-.644.15-.625.58-1.132 1.23-1.132.59 0 .7.43.7.995v2.968h1.27v-3.202c0-1.308-.61-1.894-1.67-1.894-.8 0-1.46.488-1.74 1.025h-.02c-.21-.673-.71-1.025-1.49-1.025-.8 0-1.41.547-1.66 1.035h-.02s.02-.156.02-.342v-.576h-1.22v4.979zm10.239.117c1.27 0 2.05-.713 2.05-.713l-.49-.888s-.65.547-1.47.547c-.76 0-1.45-.45-1.53-1.318h3.52s.03-.332.03-.478c0-1.318-.79-2.363-2.26-2.363-1.52 0-2.59 1.074-2.59 2.607 0 1.415 1.05 2.606 2.74 2.606m.83-3.221h-2.23c.12-.645.57-1.035 1.22-1.035.56 0 .99.361 1.01 1.035m3.6 3.104v-1.972c0-.293.03-.566.11-.81.24-.742.85-1.045 1.39-1.045.17 0 .3.02.3.02v-1.22s-.11-.02-.23-.02c-.78 0-1.39.566-1.62 1.279h-.02s.02-.166.02-.352v-.859h-1.22v4.979zm5.059.117c1.37 0 2.1-.81 2.1-.81l-.49-.879-.004.004c-.055.053-.675.63-1.496.63-.97 0-1.59-.722-1.59-1.561 0-.85.61-1.542 1.55-1.542.8 0 1.33.536 1.33.536l.56-.849s-.63-.742-1.96-.742c-1.69 0-2.77 1.191-2.77 2.607 0 1.444 1.08 2.606 2.77 2.606m4.31-5.945v-1.103h-1.26v1.103zm.01 5.828v-4.979h-1.27v4.979zm2.7.117c1.16 0 1.56-.879 1.55-.879h.02s-.02.157-.02.352v.41h1.17v-3.114c0-1.26-.78-1.982-2.12-1.982-1.21 0-2 .615-2 .615l.48.889s.67-.479 1.4-.479c.56 0 .98.225.98.879v.068h-.17c-.83 0-3.02.107-3.02 1.689 0 .995.82 1.552 1.73 1.552m.32-.967c-.52 0-.77-.312-.77-.644 0-.693 1.05-.78 1.7-.78h.22v.116c0 .606-.48 1.308-1.15 1.308m5.22.899c.21 0 .4-.03.4-.03v-1.083s-.09.01-.19.01c-.33 0-.52-.137-.52-.684v-5.193h-1.26v5.379c0 1.425.87 1.6 1.57 1.6m5.259-.05v-2.39h1.45c1.33 0 2.26-.938 2.26-2.285s-.93-2.255-2.26-2.255h-2.74v6.93zm1.21-3.484h-1.21V111.2h1.23c.73 0 1.17.458 1.17 1.171 0 .722-.44 1.19-1.19 1.19m4.71 3.485v-1.972c0-.293.03-.566.11-.81.24-.742.85-1.045 1.39-1.045.17 0 .3.02.3.02v-1.22s-.11-.02-.23-.02c-.78 0-1.39.566-1.62 1.279h-.02s.02-.166.02-.352v-.859h-1.22v4.979zm5.09.117c1.55 0 2.799-1.074 2.799-2.606 0-1.523-1.25-2.607-2.81-2.607-1.55 0-2.8 1.084-2.8 2.607 0 1.532 1.25 2.606 2.81 2.606m0-1.054c-.83 0-1.52-.625-1.52-1.552 0-.918.69-1.552 1.52-1.552.82 0 1.51.634 1.51 1.552 0 .927-.69 1.552-1.51 1.552m5.089 2.889v-2.089c0-.254-.02-.43-.02-.43h.02s.45.684 1.46.684c1.34 0 2.33-1.025 2.33-2.606 0-1.543-.88-2.607-2.26-2.607-1.2 0-1.64.82-1.64.82h-.02s.02-.156.02-.341v-.362h-1.16V119zm1.23-2.88c-.84 0-1.27-.761-1.27-1.532 0-1.103.62-1.572 1.28-1.572.75 0 1.27.615 1.27 1.562 0 .986-.58 1.542-1.28 1.542m5.99 1.045c1.27 0 2.05-.713 2.05-.713l-.49-.888s-.65.547-1.47.547c-.76 0-1.45-.45-1.53-1.318h3.52s.03-.332.03-.478c0-1.318-.79-2.363-2.26-2.363-1.52 0-2.59 1.074-2.59 2.607 0 1.415 1.05 2.606 2.74 2.606m.83-3.221h-2.23c.12-.645.57-1.035 1.22-1.035.56 0 .99.361 1.01 1.035m3.6 3.104v-1.972c0-.293.03-.566.11-.81.24-.742.85-1.045 1.389-1.045.17 0 .3.02.3.02v-1.22s-.11-.02-.23-.02c-.78 0-1.39.566-1.62 1.279h-.02s.02-.166.02-.352v-.859h-1.22v4.979zm4.999.049c.24 0 .39-.03.39-.03v-1.083s-.09.02-.23.02c-.35 0-1.01-.118-1.01-.938v-1.933h1.16v-.985h-1.16v-1.435h-1.24v1.435h-.69v.985h.66v2.09c0 1.669 1.41 1.874 2.12 1.874m2.69-5.877v-1.103h-1.26v1.103zm.01 5.828v-4.979h-1.27v4.979zm3.78.117c1.27 0 2.05-.713 2.05-.713l-.49-.888s-.65.547-1.47.547c-.76 0-1.45-.45-1.53-1.318h3.52s.03-.332.03-.478c0-1.318-.79-2.363-2.26-2.363-1.52 0-2.59 1.074-2.59 2.607 0 1.415 1.05 2.606 2.74 2.606m.83-3.221h-2.23c.12-.645.57-1.035 1.22-1.035.56 0 .99.361 1.01 1.035m3.88 3.22c1.209 0 1.949-.663 1.949-1.493 0-1.6-2.48-1.513-2.48-2.215 0-.313.32-.45.65-.45.78 0 1.25.43 1.25.43l.47-.918s-.56-.566-1.71-.566c-1.1 0-1.95.537-1.95 1.464 0 1.601 2.48 1.504 2.48 2.246 0 .292-.31.449-.67.449-.83 0-1.39-.547-1.39-.547l-.58.869s.71.732 1.98.732"/><path id="شـركـةأبـوظـبيالـتجـاريللـعـقـارات" fill="#FFF" fill-rule="nonzero" d="M176.832 96.911a.3.3 0 0 0 .187-.064.2.2 0 0 0 .08-.16v-.653a.22.22 0 0 0-.075-.166.26.26 0 0 0-.182-.07h-.706a.25.25 0 0 0-.166.07.21.21 0 0 0-.08.166v.653q0 .096.075.16t.16.064zm-.985 1.649a.3.3 0 0 0 .182-.07q.085-.07.085-.155v-.781a.21.21 0 0 0-.08-.172.3.3 0 0 0-.187-.064h-.739a.27.27 0 0 0-.182.064.21.21 0 0 0-.075.172v.78q0 .087.075.156.075.07.182.07zm1.99 0a.24.24 0 0 0 .177-.07.22.22 0 0 0 .07-.155v-.781a.22.22 0 0 0-.07-.172.25.25 0 0 0-.176-.064h-.75a.28.28 0 0 0-.176.064.21.21 0 0 0-.08.172v.78q0 .087.08.156.08.07.176.07zm-5.308 5.683q.363 0 .754-.075.39-.075.67-.289.288.215.63.29.344.075.74.074h.138q.375 0 .723-.08t.594-.284q.31.225.75.284.438.06.813.059h.139q.375 0 .696-.027a3 3 0 0 0 .546-.091q.127-.053.171-.134a.7.7 0 0 0 .064-.176q.032-.3.038-.643.005-.342.005-.642v-1.161q0-.273-.005-.551l-.011-.589a51 51 0 0 0-.016-.664.2.2 0 0 0-.054-.144q-.053-.06-.17-.059h-.91a.18.18 0 0 0-.15.064.2.2 0 0 0-.054.14 54 54 0 0 1 .021 1.594v1.434q0 .258-.085.3-.086.043-.343.043h-.246q-.215 0-.439-.032-.225-.033-.289-.16V99.95a.19.19 0 0 0-.064-.144.22.22 0 0 0-.15-.06h-.9a.22.22 0 0 0-.149.06.19.19 0 0 0-.064.144v2.612a.3.3 0 0 1-.054.187.35.35 0 0 1-.139.107.6.6 0 0 1-.187.048q-.102.01-.198.01h-.16a3 3 0 0 1-.177-.004 1 1 0 0 1-.198-.027 1 1 0 0 1-.182-.06.23.23 0 0 1-.118-.1v-2.388a.23.23 0 0 0-.06-.16.19.19 0 0 0-.144-.064h-.91a.2.2 0 0 0-.15.064.22.22 0 0 0-.064.16v2.173q0 .246-.198.305-.197.06-.401.06h-.342a.8.8 0 0 0-.236.037q-.118.037-.118.09v1.114q0 .064.118.096a1 1 0 0 0 .236.032zm-.215 0v-1.37h-2.376a.8.8 0 0 0-.235.038q-.118.037-.118.09v1.114q0 .064.118.096a1 1 0 0 0 .235.032zm-5.277 2.548q.674 0 1.103-.188.428-.187.674-.647.118-.225.166-.536.048-.31.048-.674v-.503h.985v-1.37h-.953v-3.029a.2.2 0 0 0-.058-.144.2.2 0 0 0-.145-.06h-.931a.2.2 0 0 0-.155.06.2.2 0 0 0-.06.144v4.806q0 .331-.058.519a.55.55 0 0 1-.188.284.7.7 0 0 1-.337.123q-.208.027-.508.026h-.225q-.182 0-.182.161v.792q0 .171.15.203.14.022.364.027.225.006.31.006m-3.184-2.548q.338 0 .669-.01.331-.012.61-.017t.46-.026q.225-.011.257-.204l.027-.31a13 13 0 0 0 .043-.803q.005-.192.005-.31v-.268q0-.771-.182-1.365a2.34 2.34 0 0 0-.578-.99q-.396-.395-1.027-.599-.632-.203-1.542-.203-.225 0-.498.01l-.733.032a.6.6 0 0 1 .038-.155q.037-.112.09-.24.054-.129.118-.268.065-.14.129-.257l1.006-1.916a.3.3 0 0 0 .032-.118.14.14 0 0 0-.032-.09q-.031-.038-.118-.038h-.963a.25.25 0 0 0-.177.064.7.7 0 0 0-.123.15l-.803 1.498q-.171.31-.3.578a6 6 0 0 0-.219.514 2.8 2.8 0 0 0-.176 1.006v.064q0 .054.005.113l.016.187q.011.171.246.171h2.28q.503 0 .894.086.39.086.664.278.272.193.417.509.144.315.145.786a14 14 0 0 1-.022.75 3 3 0 0 1-.289.016q-.203.005-.433.005h-4.748a.54.54 0 0 0-.246.054q-.107.053-.107.139v.984q0 .087.107.14a.54.54 0 0 0 .246.053zm-4.737 0v-1.37h-2.376a.8.8 0 0 0-.236.038q-.117.037-.117.09v1.114q0 .064.117.096a1 1 0 0 0 .236.032zm-6.069-6.261a.3.3 0 0 0 .182-.07.21.21 0 0 0 .086-.166v-.835a.22.22 0 0 0-.08-.176.28.28 0 0 0-.188-.07h-.739a.26.26 0 0 0-.182.07.23.23 0 0 0-.074.176v.835q0 .097.074.166.075.07.182.07zm1.991 0a.24.24 0 0 0 .246-.236v-.835a.24.24 0 0 0-.246-.246h-.75a.26.26 0 0 0-.176.07.22.22 0 0 0-.08.176v.835q0 .097.08.166.08.07.177.07zm1.777 6.261v-1.37h-.29q-.353 0-.513-.107t-.16-.46v-2.933q0-.086-.033-.128-.031-.044-.15-.075-.245-.075-.68-.118a9 9 0 0 0-.85-.043q-1.413 0-2.146.701-.735.702-.734 1.964v.214q0 .579.172.996t.465.685q.296.267.69.39.397.124.846.124h.14q.375 0 .733-.113.359-.113.572-.326.183.32.536.46.352.14.91.14zm-3.083-1.488h-.16q-.493 0-.728-.257-.236-.256-.236-.867v-.15q0-.62.364-.925t1.017-.305q.096 0 .273.005.177.006.24.016v2.002a.39.39 0 0 1-.203.364q-.202.117-.567.117m-6.394-6.7q.171 0 .171-.128v-.321q0-.108-.171-.108h-.75a.4.4 0 0 1-.16-.187.7.7 0 0 1-.064-.316q0-.235.128-.331.129-.097.407-.097h.375q.139 0 .139-.107v-.289q0-.086-.118-.107a1.1 1.1 0 0 0-.273-.053 3 3 0 0 0-.23-.011q-1.07 0-1.07.9 0 .16.042.32a1 1 0 0 0 .129.29h-.204q-.17 0-.17.106v.31q0 .129.17.129zm-.278 8.188a.2.2 0 0 0 .155-.07.23.23 0 0 0 .059-.155V97.05a.22.22 0 0 0-.06-.15.2.2 0 0 0-.154-.064h-.964a.2.2 0 0 0-.155.065.22.22 0 0 0-.059.15v6.967q0 .086.059.156t.155.07zm-4.839 0q.215 0 .471-.005a11 11 0 0 0 .937-.06q.198-.02.316-.053a.37.37 0 0 0 .176-.128.5.5 0 0 0 .07-.182 8 8 0 0 0 .037-.755q.006-.466.006-1.15v-.996q0-.236-.006-.497l-.016-.605a.26.26 0 0 0-.064-.145q-.054-.058-.171-.058h-.9a.2.2 0 0 0-.155.058.2.2 0 0 0-.059.145q.022.771.022 1.434v1.274q0 .257-.086.305t-.342.048h-.675a.8.8 0 0 0-.235.038q-.118.037-.118.09v1.114q0 .064.118.096a1 1 0 0 0 .235.032zm.942 2.259a.28.28 0 0 0 .188-.07q.08-.07.08-.155v-.857a.22.22 0 0 0-.08-.176.28.28 0 0 0-.188-.07h-.824a.25.25 0 0 0-.171.07.23.23 0 0 0-.075.176v.857q0 .086.075.155.075.07.171.07zm-1.306-2.259v-1.37h-2.376a.8.8 0 0 0-.235.038q-.118.037-.118.09v1.114q0 .064.118.096a1 1 0 0 0 .235.032zm-6.015 2.548q.546 0 1.027-.097a2.4 2.4 0 0 0 .846-.337q.363-.24.594-.664.23-.422.284-1.086v-.364h.963v-1.37h-.942v-3.457q0-.085-.038-.123a.5.5 0 0 0-.144-.08 2 2 0 0 0-.3-.075 5 5 0 0 0-.396-.054q-.213-.022-.444-.037a6 6 0 0 0-.434-.016q-1.38 0-2.124.69t-.744 1.953v.214q0 1.167.658 1.761t1.825.594h.782v.321q0 .31-.107.503a.75.75 0 0 1-.327.305 1.7 1.7 0 0 1-.535.156q-.316.042-.733.042h-.974q-.193 0-.193.182v.782q0 .085.032.133.032.05.14.07a1 1 0 0 0 .235.027q.171.005.374.016.204.01.39.01zm1.434-3.875h-.803q-.6 0-.867-.294-.267-.295-.267-.905v-.139q0-.621.337-.963.336-.343.947-.343.342 0 .653.032zm-6.99 1.327q.375 0 .77-.01.397-.012.74-.017a4 4 0 0 0 .492-.026q.171-.022.246-.113a.45.45 0 0 0 .096-.198q.075-.321.113-.765.037-.444.037-.797v-.44q0-.79-.214-1.343a2.2 2.2 0 0 0-.605-.888 2.4 2.4 0 0 0-.947-.487q-.556-.15-1.242-.15a9 9 0 0 0-.47.016 5 5 0 0 0-.616.075q-.327.06-.658.177a2.6 2.6 0 0 0-.61.31v-3.264a.22.22 0 0 0-.065-.16.2.2 0 0 0-.15-.065h-.974a.19.19 0 0 0-.144.064.23.23 0 0 0-.06.16v6.551h-1.209a.8.8 0 0 0-.235.038q-.118.037-.118.09v1.114q0 .064.118.096a1 1 0 0 0 .235.032zm-.203-6.315a.24.24 0 0 0 .246-.235v-.835a.24.24 0 0 0-.236-.246h-.845a.26.26 0 0 0-.182.07.23.23 0 0 0-.075.176v.835q0 .096.07.166.069.07.187.07zm1.113 4.977h-2.597q-.353 0-.625-.005a22 22 0 0 1-.557-.016v-2.109q.204-.15.471-.24.269-.092.552-.14t.54-.064q.258-.016.44-.016.523 0 .904.086.38.085.626.289t.364.53.118.818v.16q0 .44-.049.573-.048.135-.187.134m-6.305 1.338v-1.37h-2.376a.8.8 0 0 0-.236.038q-.117.037-.117.09v1.114q0 .064.117.096a1 1 0 0 0 .236.032zm-5.427 0q.171 0 .37-.016.198-.015.396-.059.198-.043.38-.112.182-.07.331-.177.279.225.696.295.418.07.824.07h.129v-1.37h-.257a3 3 0 0 1-.177-.006 1.5 1.5 0 0 1-.208-.027 1 1 0 0 1-.193-.059.25.25 0 0 1-.118-.09v-2.848a.2.2 0 0 0-.059-.144.2.2 0 0 0-.144-.06h-.931a.2.2 0 0 0-.156.06.2.2 0 0 0-.058.144v2.665q0 .129-.065.198a.4.4 0 0 1-.155.107.7.7 0 0 1-.198.048q-.108.011-.203.011h-.493a.8.8 0 0 0-.235.038q-.118.037-.118.09v1.114q0 .064.118.096a1 1 0 0 0 .235.032zm1.852 2.259a.28.28 0 0 0 .187-.07q.08-.07.08-.155v-.857a.22.22 0 0 0-.08-.176.28.28 0 0 0-.187-.07h-.824a.25.25 0 0 0-.171.07.23.23 0 0 0-.075.176v.857q0 .086.075.155.075.07.17.07zm-8.585-.44q.59 0 1.14-.042a12 12 0 0 0 1.001-.118q.236-.043.236-.235.021-.375.032-.835t.01-.846v-1.766q0-.705.311-.98.31-.272.92-.272.15 0 .257.01t.268.033v1.883q0 .418.096.68a.9.9 0 0 0 .284.412q.187.15.466.204.278.053.653.053h.845v-1.37h-.492q-.278 0-.386-.07-.106-.07-.107-.305v-2.43q0-.105-.048-.149a.3.3 0 0 0-.134-.064 8 8 0 0 0-.695-.097 8 8 0 0 0-.846-.042q-1.328 0-2.04.578-.71.577-.71 1.798v1.338q0 .181-.006.364l-.01.39-.017.477q-.225.032-.466.048-.24.016-.53.016-.717 0-1.145-.198a1.5 1.5 0 0 1-.653-.546 2.04 2.04 0 0 1-.294-.824 7 7 0 0 1-.07-1.033q0-.15.016-.39.017-.242.038-.477.02-.203-.182-.203h-.824q-.183-.001-.214.214a7 7 0 0 0-.102.76q-.016.193-.027.363-.01.171-.01.29 0 .834.192 1.466.193.63.605 1.054.413.423 1.065.642.653.22 1.573.22m-1.07 1.938a.26.26 0 0 0 .166-.064q.08-.065.08-.15v-.76a.2.2 0 0 0-.075-.166.27.27 0 0 0-.171-.059h-.717a.27.27 0 0 0-.171.06.2.2 0 0 0-.075.165v.76q0 .085.075.15t.17.064zm1.991 0q.085 0 .16-.064a.2.2 0 0 0 .075-.15v-.76a.2.2 0 0 0-.074-.166.26.26 0 0 0-.161-.059h-.728q-.085 0-.16.06a.2.2 0 0 0-.075.165v.76q0 .085.075.15t.16.064zm-8.492-3.757a.2.2 0 0 0 .155-.07.23.23 0 0 0 .059-.155v-7.706a.22.22 0 0 0-.06-.15.2.2 0 0 0-.154-.064h-.964a.2.2 0 0 0-.155.064.22.22 0 0 0-.059.15v7.706q0 .086.06.156.058.07.154.07zm-4.892 0q.214 0 .476-.005a11 11 0 0 0 .964-.06 2 2 0 0 0 .326-.053.37.37 0 0 0 .177-.128.5.5 0 0 0 .07-.182q.03-.29.042-.637.01-.348.01-.637v-6.218a.23.23 0 0 0-.058-.16.19.19 0 0 0-.145-.065h-.974a.2.2 0 0 0-.15.064.22.22 0 0 0-.064.16v6.198q0 .257-.08.305t-.337.048h-.728a.8.8 0 0 0-.236.038q-.117.037-.117.09v1.114q0 .064.117.096a1 1 0 0 0 .236.032zm-.396 0v-1.37h-2.376a.8.8 0 0 0-.236.038q-.118.037-.118.09v1.114q0 .064.118.096a1 1 0 0 0 .236.032zm-4.57-5.79a.3.3 0 0 0 .181-.07.21.21 0 0 0 .086-.166v-.835a.22.22 0 0 0-.08-.176.28.28 0 0 0-.188-.07h-.738a.26.26 0 0 0-.182.07.23.23 0 0 0-.075.176v.835q0 .097.075.166.075.07.182.07zm1.99 0a.24.24 0 0 0 .246-.236v-.835a.24.24 0 0 0-.246-.246h-.75a.26.26 0 0 0-.176.07.22.22 0 0 0-.08.176v.835q0 .097.08.166.081.07.177.07zm-2.847 5.79q.17 0 .37-.016.197-.015.395-.059.198-.043.38-.112.183-.07.332-.177.278.225.696.295t.824.07h.128v-1.37h-.256a3 3 0 0 1-.177-.006 1.5 1.5 0 0 1-.209-.027 1 1 0 0 1-.192-.059.25.25 0 0 1-.118-.09v-2.848a.2.2 0 0 0-.06-.144.2.2 0 0 0-.144-.06h-.93a.2.2 0 0 0-.156.06.2.2 0 0 0-.059.144v2.665q0 .129-.064.198a.4.4 0 0 1-.155.107.7.7 0 0 1-.198.048q-.108.011-.204.011h-.492a.8.8 0 0 0-.236.038q-.117.037-.117.09v1.114q0 .064.117.096a1 1 0 0 0 .236.032zm-.214 0v-1.37h-.107a.27.27 0 0 1-.14-.032.35.35 0 0 1-.106-.118.7.7 0 0 1-.075-.15l-.097-.23-.107-.246a5 5 0 0 1-.085-.209l-.14-.3a6 6 0 0 0-.695-1.214 3.5 3.5 0 0 0-.814-.781 2.9 2.9 0 0 0-.942-.418 4.6 4.6 0 0 0-1.092-.123q-.278 0-.53.021-.25.023-.519.075-.214.043-.214.204v.792q0 .192.225.171.118-.011.31-.016.193-.005.268-.005 1.017 0 1.606.39.588.391.899 1.076l.214.45.289.663h-4.55a.8.8 0 0 0-.235.038q-.117.037-.118.09v1.114q0 .043.113.085a.7.7 0 0 0 .24.043zm-3.19 2.259a.28.28 0 0 0 .187-.07q.08-.07.08-.155v-.857a.22.22 0 0 0-.08-.176.28.28 0 0 0-.187-.07h-.824a.25.25 0 0 0-.172.07.23.23 0 0 0-.074.176v.857q0 .086.074.155.076.07.172.07zm-3.136-2.259v-1.37h-2.377a.8.8 0 0 0-.235.038q-.118.037-.118.09v1.114q0 .064.118.096a1 1 0 0 0 .235.032zm-2.302 0v-1.37h-.353q-.3 0-.45-.09-.15-.092-.15-.456v-6.015a.23.23 0 0 0-.053-.15q-.055-.064-.16-.064h-.953a.22.22 0 0 0-.16.064.2.2 0 0 0-.065.15v6.422q0 .471.112.765t.322.46q.208.167.503.225.294.06.658.06zm-5.951 2.548q.675 0 1.102-.188.428-.187.675-.647.16-.311.203-.685t.043-.782v-4.645a.2.2 0 0 0-.059-.144.2.2 0 0 0-.145-.06h-.93a.2.2 0 0 0-.156.06.2.2 0 0 0-.059.144v4.806q0 .331-.059.519a.55.55 0 0 1-.187.284.7.7 0 0 1-.337.123q-.21.027-.509.026h-.224q-.183 0-.182.161v.792q0 .171.15.203.138.022.363.027.226.006.31.006m-6.797-.728q.578 0 1.134-.043a12 12 0 0 0 1.006-.118q.236-.043.236-.235.021-.375.032-.835t.01-.846v-1.766q0-.705.311-.98.31-.272.92-.272.15 0 .263.01t.305.033v3.007q0 .097.059.16.06.066.144.065h.942a.2.2 0 0 0 .156-.064.23.23 0 0 0 .059-.16v-3.95q0-.107-.049-.15a.3.3 0 0 0-.133-.064q-.3-.065-.723-.102a9 9 0 0 0-.797-.037q-1.381 0-2.098.572-.718.573-.718 1.804v1.338q0 .181-.005.364l-.01.39-.017.477q-.225.032-.465.048t-.53.016q-.717 0-1.146-.198a1.5 1.5 0 0 1-.653-.546 2.04 2.04 0 0 1-.294-.824 7 7 0 0 1-.07-1.033q0-.15.022-.39l.043-.477q0-.203-.182-.203h-.824q-.118 0-.161.048a.35.35 0 0 0-.064.166 15 15 0 0 0-.064.369 5 5 0 0 0-.049.39q-.016.193-.026.364t-.011.29q0 .834.193 1.466.192.63.61 1.054a2.7 2.7 0 0 0 1.07.642q.653.22 1.574.22M71.774 108a.26.26 0 0 0 .17-.064.2.2 0 0 0 .076-.15v-.76a.2.2 0 0 0-.07-.166.26.26 0 0 0-.176-.059h-.707q-.106 0-.177.06a.2.2 0 0 0-.07.165v.76q0 .085.07.15a.25.25 0 0 0 .177.064zm2.001 0q.085 0 .16-.064a.2.2 0 0 0 .076-.15v-.76a.2.2 0 0 0-.075-.166.26.26 0 0 0-.16-.059h-.729a.27.27 0 0 0-.17.06.2.2 0 0 0-.076.165v.76q0 .085.075.15t.171.064zm-10.29-3.757q.213 0 .476-.005a11 11 0 0 0 .963-.06 2 2 0 0 0 .327-.053.37.37 0 0 0 .176-.128.5.5 0 0 0 .07-.182q.032-.29.043-.637t.01-.637v-6.218a.23.23 0 0 0-.058-.16.19.19 0 0 0-.145-.065h-.974a.2.2 0 0 0-.15.064.22.22 0 0 0-.064.16v6.198q0 .257-.08.305t-.337.048h-.728a.8.8 0 0 0-.236.038q-.118.037-.118.09v1.114q0 .064.118.096a1 1 0 0 0 .236.032zm-3.511 0q.171 0 .369-.016.198-.015.396-.059.198-.043.38-.112.182-.07.332-.177a1.4 1.4 0 0 0 .685.295q.417.07.824.07h.129v-1.37h-.268q-.15 0-.375-.033-.225-.031-.31-.15v-6.368a.24.24 0 0 0-.054-.16.18.18 0 0 0-.15-.065h-.974a.2.2 0 0 0-.15.064.22.22 0 0 0-.064.16v6.187q0 .129-.058.198a.4.4 0 0 1-.15.107.7.7 0 0 1-.198.048q-.108.011-.204.011H59.6a.8.8 0 0 0-.235.038q-.118.037-.118.09v1.114q0 .064.118.096a1 1 0 0 0 .235.032zm-.3 0v-1.37h-2.376a.8.8 0 0 0-.236.038q-.117.037-.118.09v1.114q0 .064.118.096a1 1 0 0 0 .236.032zm-2.301 0v-1.37h-1.328a.9.9 0 0 0 .23-.267q.102-.172.172-.38a2.9 2.9 0 0 0 .144-.873v-.235q0-.589-.198-1.001a1.7 1.7 0 0 0-.546-.664 2.3 2.3 0 0 0-.819-.364 4.4 4.4 0 0 0-2.301.091q-.31.097-.589.225a2.4 2.4 0 0 0-.47.278 1.5 1.5 0 0 0-.15.15.3.3 0 0 0-.065.15l-.021.546a.5.5 0 0 0 0 .145q.01.09.043.144l.802 2.055H50.79a.8.8 0 0 0-.236.038q-.118.037-.118.09v1.114q0 .064.118.096a1 1 0 0 0 .236.032zm-3.105-1.338h-.535l-.952-2.408q.31-.203.647-.257.338-.053.583-.053.59 0 .91.272.321.273.321.862v.096q0 .268-.058.52-.06.25-.182.45a1.3 1.3 0 0 1-.305.336.97.97 0 0 1-.429.182m-3.404 1.338v-1.37h-2.376a.8.8 0 0 0-.235.038q-.118.037-.118.09v1.114q0 .064.118.096a1 1 0 0 0 .235.032zm-6.069-6.315a.3.3 0 0 0 .182-.07.2.2 0 0 0 .086-.165v-.835a.22.22 0 0 0-.08-.177.28.28 0 0 0-.188-.07h-.738a.26.26 0 0 0-.182.07.23.23 0 0 0-.075.177v.835q0 .096.075.166t.182.07zm1.991 0a.24.24 0 0 0 .246-.235v-.835a.24.24 0 0 0-.246-.246h-.75a.26.26 0 0 0-.176.07.22.22 0 0 0-.08.176v.835q0 .096.08.166.081.07.177.07zm1.777 6.315v-1.37h-.931v-3.521a.24.24 0 0 0-.032-.134q-.033-.048-.15-.08a5 5 0 0 0-.343-.065 11 11 0 0 0-.433-.058 7 7 0 0 0-.477-.038 11 11 0 0 0-.47-.01q-.62 0-1.13.155t-.872.454-.562.75-.198 1.038v.203q0 .461.112.787t.316.52h-1.188a.8.8 0 0 0-.236.037q-.117.037-.117.09v1.114q0 .064.117.096a1 1 0 0 0 .236.032zm-2.28-1.327h-.813q-.611 0-.883-.332-.273-.332-.273-.963v-.193q0-1.242 1.273-1.241.375 0 .696.032zm-4.003 1.327v-1.37h-2.377a.8.8 0 0 0-.235.038q-.118.037-.118.09v1.114q0 .064.118.096a1 1 0 0 0 .235.032zm-2.302 0v-1.37h-.353q-.3 0-.45-.09-.15-.092-.15-.456v-6.015a.23.23 0 0 0-.053-.15q-.053-.064-.16-.064h-.953a.22.22 0 0 0-.16.064.2.2 0 0 0-.065.15v6.422q0 .471.113.765t.32.46q.21.167.504.225.294.06.658.06zm-5.833 2.548q.61 0 1.027-.177.419-.177.642-.637.172-.321.21-.701.037-.38.037-.787v-4.645A.2.2 0 0 0 36 99.7a.2.2 0 0 0-.144-.06h-.93a.22.22 0 0 0-.15.06.19.19 0 0 0-.065.144v4.806q0 .331-.059.519a.6.6 0 0 1-.171.284.56.56 0 0 1-.284.123 2.6 2.6 0 0 1-.396.026h-.214q-.203 0-.203.172v.781q0 .171.182.203.117.022.31.027t.268.006m-1.692-2.548a.2.2 0 0 0 .156-.07.23.23 0 0 0 .058-.155v-7.706a.22.22 0 0 0-.058-.15.2.2 0 0 0-.156-.064h-.963a.2.2 0 0 0-.155.064.22.22 0 0 0-.06.15v7.706q0 .086.06.156.059.07.155.07zm-7.739-5.245a.3.3 0 0 0 .182-.07.2.2 0 0 0 .086-.165v-.835a.22.22 0 0 0-.08-.176.28.28 0 0 0-.188-.07h-.738a.26.26 0 0 0-.182.07.23.23 0 0 0-.075.176v.835q0 .096.075.166.074.07.182.07zm1.991 0a.24.24 0 0 0 .246-.235v-.835a.24.24 0 0 0-.246-.246h-.749a.26.26 0 0 0-.177.07.22.22 0 0 0-.08.176v.835q0 .096.08.166.081.07.177.07zm.312 5.245q.265 0 .582-.005a23 23 0 0 0 1.343-.06q.279-.02.397-.053.128-.053.17-.128.044-.074.065-.182.032-.289.043-.755t.01-1.15v-.52q0-.23-.005-.46l-.01-.487a29 29 0 0 1-.006-.599.2.2 0 0 0-.059-.144q-.059-.06-.176-.06h-.889a.2.2 0 0 0-.144.06.2.2 0 0 0-.06.144q.012.771.006 1.418-.005.648-.005 1.258 0 .257-.086.305t-.342.048h-3.19q-.74 0-1.204-.128-.466-.128-.723-.375a1.3 1.3 0 0 1-.353-.615 3.4 3.4 0 0 1-.097-.851q0-.3.033-.75.02-.213-.182-.214h-.803q-.118 0-.16.049a.35.35 0 0 0-.065.165q-.107.632-.107 1.135 0 .696.16 1.242.162.545.563.925t1.091.584q.69.203 1.761.203z"/><path id="ADCP-Copy" fill="#FFF" fill-rule="nonzero" d="m28.818 84.252 3.613-9.285h20.332l3.613 9.285h5.818L45.78 42.686h-6.307L23 84.252zm22.475-13.835H33.962l8.635-22.434zm30.191 13.835c12.738 0 20.945-8.911 20.945-20.752 0-11.778-8.207-20.814-20.945-20.814H67.522v41.566zm0-4.611h-8.88V47.297h8.88c10.105 0 15.678 7.23 15.678 16.203 0 8.912-5.757 16.14-15.678 16.14M129.742 85c7.226 0 12.125-3.49 15.555-8.288l-4.287-2.369c-2.327 3.49-6.614 6.045-11.268 6.045-8.941 0-15.739-7.042-15.739-16.888 0-9.971 6.798-16.888 15.739-16.888 4.654 0 8.94 2.492 11.268 6.045l4.226-2.43C141.99 45.49 136.968 42 129.742 42c-11.758 0-21.006 8.725-21.006 21.5S117.984 85 129.742 85m27.13-.748V67.738H168.2c8.145 0 12.799-5.734 12.799-12.526 0-6.793-4.593-12.526-12.8-12.526h-16.412v41.566zm10.716-21.126h-10.717V47.297h10.717c4.838 0 8.145 3.24 8.145 7.915s-3.307 7.914-8.145 7.914"/></g></g></g></svg>