<svg xmlns="http://www.w3.org/2000/svg" width="606" height="385" fill="none"><g clip-path="url('#clip0_603_809')"><path fill="#454545" d="M141.22 286H81.6c-3-.49-3.69-3.51-3.84-4.87v-15.5c.3-3.79 2.95-4.44 2.95-4.44a11.9 11.9 0 0 0-5.53.18c-.3.1-.64.24-1 .37a8 8 0 0 0-1.33.79 5.83 5.83 0 0 0-2.26 3.29v.91l.21 6c.05.59.05 1.16.06 1.73v3.93c0 .53 0 1.07-.06 1.6 0 6.63-3.33 6-3.33 6h-9.31c-3.55 0-5.81-3.51-5.81-3.51a6.7 6.7 0 0 1-1-4c-.02-1.709.285-3.406.9-5a11.15 11.15 0 0 1 2.49-3.73 10.3 10.3 0 0 1 2.4-1.73q.213-.068.4-.19l.58-.22a8 8 0 0 1 .87-.32h.05l.53-.18c.76-.2 2.62-.37 3.32-.53.3-.05.6-.08.91-.12v-.05a6.94 6.94 0 0 0 4.08-1.94c.42-.44.76-.951 1-1.51q.195-.363.31-.76a.2.2 0 0 0 0-.1 8.5 8.5 0 0 0 .26-2s-.68 2.74-4.59 2.86h-2.61a33 33 0 0 0-5.14.64 18.5 18.5 0 0 0-6.24 2.53 14.3 14.3 0 0 0-4.65 4.75 13.75 13.75 0 0 0-1.79 7.27c0 4.44 1.37 7.72 4 9.77a17.13 17.13 0 0 0 7.88 3c4.726.322 9.467.375 14.2.16h.31v.45c0 8.59-7.5 9.34-7.5 9.34-7.88.67-12.61-7.48-12.61-7.48-3.55-4.75-7.82-1.45-7.82-1.45a3.47 3.47 0 0 1 2.78-.221 3.49 3.49 0 0 1 2.05 1.891c.93 1.7 4.08 6.25 4.08 6.25 8.1 10.4 18.72 5.51 18.72 5.51 7.49-3.16 7.21-11.57 7.21-11.57v-2.61h6.45l64.94.1M37.82 301.35h.11v-.05c0 .05-.06.05-.06.05m-5.81-8.87c0 .771-.087 1.539-.26 2.29a9.2 9.2 0 0 1-1.05 2.45c-1.81 2.82-5.16 4-8.11 4.46a23.5 23.5 0 0 1-5.76.25l-6-.12a7.3 7.3 0 0 1-3.21-1.29c-5.57-5-3.5-14.14-3.5-14.14.67-5.9-4.17-6.48-4.17-6.48 2.11.91 2.55 2.69 2.1 4.58s-1.27 7.29-1.27 7.29c-1.31 13.12 8.68 15.9 8.68 15.9s1 .69 6.85.69h5.14s.43 0 1.14-.08c2.47-.23 8.44-1.21 12.26-4.91a11.2 11.2 0 0 0 2.1-2.75 12 12 0 0 0 1.36-5.62v-4l.06-52.48c.25-3.8 2.72-4.44 2.72-4.44a9.95 9.95 0 0 0-5.1.17 6 6 0 0 0-.9.36c-.441.21-.852.479-1.22.8a5.68 5.68 0 0 0-2.08 3.27v.7a1 1 0 0 0 0 .19l.19 6v1.69zM522.56 287.82c-.31-2.58-.31-7.5-.31-13.41v-30.84s0-9.22-9.41-9.22l-3.08-.05c.78-.025 1.559.07 2.31.28 1.38.45 2 1.18 2.18 3.26s.07 16.47.07 25.77v17.79s.57 9.18 10 9.18l1.37.15a3.214 3.214 0 0 1-3.14-2.87M601.86 284.6v.14-.18m0-20.67c.14-1.87.74-2.53 2-2.92a7.6 7.6 0 0 1 2.1-.26l-2.78.07c-8.58 0-8.52 8.32-8.52 8.32v12.48c.18 3.82.8 4.36 1 4.4H565c-3-.49-3.7-3.53-3.84-4.87v-15.48c.29-3.79 2.94-4.46 2.94-4.46a12.1 12.1 0 0 0-5.53.19c-.31.11-.64.25-1 .38a6.3 6.3 0 0 0-1.32.79 5.72 5.72 0 0 0-2.25 3.27v.74a.8.8 0 0 1 0 .19l.23 6v7.26c0 6.6-3.38 6-3.38 6h-9.3c-3.54 0-5.79-3.51-5.79-3.51a6.6 6.6 0 0 1-1-4 13 13 0 0 1 .92-5.06 11.7 11.7 0 0 1 2.47-3.69 10.3 10.3 0 0 1 2.42-1.73l.4-.19q.719-.256 1.43-.53a.1.1 0 0 1 .03-.007q.016 0 .03.007l.54-.28c.75-.2 2.6-.37 3.3-.53q.462-.084.93-.12l-.07-.07a6.83 6.83 0 0 0 4.1-1.93c.406-.451.743-.96 1-1.51l.33-.78V262c.18-.652.274-1.324.28-2 0 0-.72 2.72-4.63 2.86h-1.07l-1.43.06h-.08a31.3 31.3 0 0 0-5.14.64 17.8 17.8 0 0 0-6.21 2.51 14.5 14.5 0 0 0-4.67 4.77 13.9 13.9 0 0 0-1.78 7.27c0 4.44 1.35 7.71 4.07 9.75a17.2 17.2 0 0 0 7.85 3c4.73.32 9.475.363 14.21.13h.31v.47c0 8.58-7.5 9.33-7.5 9.33-7.88.66-12.61-7.46-12.61-7.46-3.54-4.77-7.82-1.47-7.82-1.47a3.515 3.515 0 0 1 4.008.522 3.5 3.5 0 0 1 .832 1.158c1 1.68 4.09 6.24 4.09 6.24 8.1 10.41 18.71 5.5 18.71 5.5 7.49-3.15 7.2-11.55 7.2-11.55v-2.61q.265.022.53 0h2.24l3.66-.07 36.11.13c-1.73 0-1.88-5.46-1.86-8.14v-7.36c0-8.42 0-10 .07-11.77M596.65 295.98l4.27 4.27-4.27 4.26-4.24-4.26z"/><path fill="#454545" d="M509.22 263.89c.13-1.87.71-2.53 2-2.92a7.6 7.6 0 0 1 2.09-.26l-2.82.07c-8.52 0-8.51 8.32-8.51 8.32v11.1c.11 5.1.83 5.73 1.11 5.78H454.7c-3-.49-3.66-3.53-3.81-4.87v-15.48c.28-3.79 2.95-4.46 2.95-4.46a12.1 12.1 0 0 0-5.53.19l-1 .38a6.4 6.4 0 0 0-1.3.79 5.55 5.55 0 0 0-2.27 3.27v.74a2 2 0 0 0 0 .19l.23 6v7.26c0 6.6-4.81 6-4.81 6-8.89.37-10.9-.74-10.9-.74a7.66 7.66 0 0 1-3.06-2.93 6.44 6.44 0 0 1-1.07-3.89c-.024-1.731.292-3.45.93-5.06a10.9 10.9 0 0 1 2.46-3.69 10 10 0 0 1 2.43-1.73l.41-.19q.7-.268 1.4-.53h.07l.53-.18c.78-.2 1.55-.37 2.25-.53q.452-.084.91-.12v-.07a6.78 6.78 0 0 0 4.07-1.93 6.2 6.2 0 0 0 .95-1.51q.198-.374.32-.78v-.06c.173-.653.26-1.325.26-2 0 0-.72 2.72-4.57 2.86h-1.08l-1.44.06h-.1c-1.715.07-3.421.284-5.1.64a18.1 18.1 0 0 0-6.26 2.51 14.5 14.5 0 0 0-4.65 4.77 13.6 13.6 0 0 0-1.79 7.27c0 4.44 1.37 7.71 4.06 9.75a17.26 17.26 0 0 0 7.88 3s4.37.27 10.14.26h1.9300000000000002a13.65 13.65 0 0 0 7.43-2.57 5.5 5.5 0 0 0 3.34 2.36 9.3 9.3 0 0 0 2.25.21q.125.01.25 0h2.23l43.57-.07 11.76.13c-1.73 0-1.88-5.46-1.86-8.14a1.4 1.4 0 0 1 0-.22v-7.14c0-8.42 0-10 .08-11.77M500.2 295.98l4.25 4.27-4.25 4.26-4.26-4.26zM437.82 252.7l4.24-4.27 4.25 4.27-4.25 4.25zM432.72 248.43l4.25 4.27-4.25 4.25-4.24-4.25zM236.4 252.7l4.26-4.27 4.23 4.27-4.23 4.25zM247.27 301.34a.1.1 0 0 1 .04-.009.1.1 0 0 1 .04.009h-.06m.57-35.78c.26-3.77 2.72-4.44 2.72-4.44a10 10 0 0 0-5.08.19 7 7 0 0 0-.92.36q-.643.353-1.23.79a5.77 5.77 0 0 0-2.07 3.27v.75a.8.8 0 0 0 0 .21l.21 6v4.8100000000000005h-.08v3.5c-.31 5.54-3.07 5-3.07 5l-8.54-.05c-3.3 0-5.39-3.49-5.39-3.49a7.25 7.25 0 0 1-.91-4 14.3 14.3 0 0 1 .85-5.05 11.7 11.7 0 0 1 2.24-3.71 12.2 12.2 0 0 1 2.25-1.71c.15-.06.24-.14.37-.2q.262-.098.51-.23c.28-.1.54-.22.81-.32l.5-.14c.72-.2 2.41-.42 3-.54.29-.05.58-.08.88-.15a6 6 0 0 0 3.73-2c.369-.449.669-.952.89-1.49.12-.27.19-.5.3-.78v-.11a8.2 8.2 0 0 0 .24-2s-.63 2.77-4.24 2.91h-.99c-.26 0-1.15.06-1.3.06h-.1a26 26 0 0 0-4.69.63 16.8 16.8 0 0 0-5.77 2.52 13.7 13.7 0 0 0-4.28 4.79 14.5 14.5 0 0 0-1.66 7.26c0 4.41 1.25 7.72 3.73 9.73a14.76 14.76 0 0 0 7.25 3c4.352.327 8.721.381 13.08.16h.32v1.5a9.8 9.8 0 0 1-.27 2.29 8.6 8.6 0 0 1-1 2.43c-1.8 2.82-5.17 4-8.11 4.48a22.4 22.4 0 0 1-5.76.25l-20-.11a7.6 7.6 0 0 1-3.23-1.31c-5.56-5-3.48-14.13-3.48-14.13.66-5.91-4.2-6.5-4.2-6.5a3.57 3.57 0 0 1 2.09 4.57c-.46 1.88-1.24 7.32-1.24 7.32-1.31 13.11 8.68 15.89 8.68 15.89s1 .69 6.86.69H231l1.13-.08c2.46-.24 8.43-1.24 12.25-4.92a11 11 0 0 0 3.45-8.43V291zM231.32 248.43l4.25 4.27-4.25 4.25-4.25-4.25z"/><path fill="#454545" d="M399.76 287.8c-.3-2.56-.33-7.47-.33-13.4v-30.87s0-9.22-9.39-9.22h-3.1c.775-.027 1.55.06 2.3.26 1.39.46 2 1.19 2.19 3.26s.06 16.49.1 25.8v17.77s.57 9.18 10 9.18l1.39.15c-1.88-.27-2.92-1.22-3.13-2.9m-14.53 1.29a11.8 11.8 0 0 1-.54-2.55c-.06-1.14-.11-2.54-.13-4.13v-.51.06-38.46s0-9.22-9.42-9.22h-3.06a8 8 0 0 1 2.31.26c1.34.46 2 1.19 2.16 3.26s.07 16.49.09 25.8v17.78a7.8 7.8 0 0 0 .3 1.61c.22 1.48.53 2 .77 2.19v.08h-22.5v-.12c-3.68 0-4.49-3.44-4.69-4.92v-5.52c0-8.42 0-9 .06-10.76s.75-2.54 2-2.93a6.9 6.9 0 0 1 2.08-.26h-2.76c-8.58 0-8.55 8.34-8.55 8.34V281c.22 3.63.81 4.13 1.05 4.2h-3.09c-3.13 0-4.17-2.52-4.5-4.17v-6.27c0-8.42 0-9 .09-10.76s.72-2.54 1.94-2.93a7 7 0 0 1 2.11-.26h-2.8c-8.53 0-8.52 8.34-8.52 8.34V281c.2 3.63.81 4.13 1 4.2h-3.08c-3.3 0-4.26-2.88-4.53-4.5v-5.94c0-8.42 0-9 .09-10.76s.7-2.54 2-2.93a6.9 6.9 0 0 1 2.11-.26h-2.81c-8.56 0-8.52 8.34-8.52 8.34V281c.21 3.64.8 4.14 1 4.21h-42.45c-3.61 0-4.46-3.23-4.67-4.77v-15c.3-3.79 2.95-4.43 2.95-4.43a11.65 11.65 0 0 0-5.51.18q-.519.134-1 .37a7.8 7.8 0 0 0-1.32.78 5.58 5.58 0 0 0-2.24 3.27l-.05.05v.89l.23 6c0 .57 0 1.13.05 1.71v7.12c0 .58 0 1.1-.05 1.65v11.44a10.6 10.6 0 0 1-1.15 5.1c-.17.26-.33.52-.49.75a5.45 5.45 0 0 1-3.714 2.324 5.45 5.45 0 0 1-4.226-1.154c-3.21-3.17-5.62-.62-6-.18h.05c2.19-.63 3.55.95 4.23 2.12q.315.54.52 1.13c3.43 5 7.37 4.72 9.64 4v.05c.53-.18.83-.31.83-.31 7.53-3.15 7.22-11.56 7.22-11.56v-6.44h44.1l1.44-.06 8.7.11q.69.057 1.38 0h2.26l1.37-.06 8.76.11q.7.054 1.4 0h2.24l1.4-.06 9.49.11a.7.7 0 0 1-.29-.08l33.35.23c.38 0 .78.06 1.15.06l1.4.15a3.5 3.5 0 0 1-2.72-1.61"/><path fill="#454545" d="m334.76 241.33 4.26 4.28-4.26 4.22-4.25-4.22zM335.19 252.7l4.25-4.27 4.24 4.27-4.24 4.25zM330.08 248.43l4.24 4.27-4.24 4.25-4.23-4.25zM98.15 286h48.35c3-.5 3.65-3.53 3.81-4.88v-15.5c-.28-3.79-3-4.44-3-4.44a12.05 12.05 0 0 1 5.53.18q.522.143 1 .4c.478.191.926.451 1.33.77a5.73 5.73 0 0 1 2.26 3.28l.06.06v.67l-.06.18-.2 6v7.26c0 6.6 4.81 6 4.81 6 8.9.37 10.88-.75 10.88-.75a7.32 7.32 0 0 0 3-2.91 6.18 6.18 0 0 0 1.1-3.9 12.9 12.9 0 0 0-.94-5 10.9 10.9 0 0 0-2.44-3.71 11.3 11.3 0 0 0-2.44-1.74l-.39-.19a4 4 0 0 0-.57-.2 5.3 5.3 0 0 0-.86-.34l-.57-.17c-.76-.21-1.53-.39-2.23-.53a7 7 0 0 0-.94-.13l.05-.07a6.73 6.73 0 0 1-4-1.92 6.3 6.3 0 0 1-1-1.52c-.08-.25-.23-.48-.3-.78v-.06a7.9 7.9 0 0 1-.25-2.06s.69 2.75 4.59 2.88h1.1l1.39.05.09.05c1.725.053 3.442.26 5.13.62a18.6 18.6 0 0 1 6.26 2.53 14.5 14.5 0 0 1 4.63 4.76 13.85 13.85 0 0 1 1.8 7.27c0 4.43-1.38 7.71-4.05 9.76a17.3 17.3 0 0 1-7.89 3s-4.35.27-10.15.26h-1.9200000000000002c-2.679-.106-5.267-1-7.44-2.57a5.65 5.65 0 0 1-3.32 2.37 10 10 0 0 1-2.26.2 1.6 1.6 0 0 0-.26 0h-2.23L102 291l-11.77.12"/><path fill="#0086FF" d="M304.18 0A39.19 39.19 0 0 0 265 39.11 38.7 38.7 0 0 0 268.72 56a7.33 7.33 0 0 0 6 3.48A14.769 14.769 0 0 0 276.29 30a18.11 18.11 0 0 1 6.26 34.38 21.111 21.111 0 0 0 .32-42.22 25.91 25.91 0 0 1 10.9 49.25 30.172 30.172 0 0 0 22.103-50.67 30.17 30.17 0 0 0-20.583-9.63 37 37 0 0 1 33.277 24.73A37.005 37.005 0 0 1 318 75.93 39.23 39.23 0 0 0 304.31 0zM290.29 118.15a39.239 39.239 0 0 0 11.417 75.861 39.24 39.24 0 0 0 35.984-18.746A39.23 39.23 0 0 0 343.42 155a38.65 38.65 0 0 0-3.76-16.86 7.34 7.34 0 0 0-6.05-3.47 14.77 14.77 0 0 0-1.52 29.46 18.11 18.11 0 0 1-6.26-34.4 21.113 21.113 0 0 0-.59 42.22 25.91 25.91 0 0 1-24.693-20.44 25.914 25.914 0 0 1 14.073-28.8 30.17 30.17 0 0 0-1.51 60.3 36.995 36.995 0 0 1-33.336-24.688A37.005 37.005 0 0 1 290.31 118.2zM361.94 57.81a38.5 38.5 0 0 0-16.72 3.77 7.3 7.3 0 0 0-3.45 6 14.772 14.772 0 0 0 24.336 11.15 14.77 14.77 0 0 0 5.114-9.63 18.09 18.09 0 0 1-34.38 6.25 21.133 21.133 0 0 0 21.101 20.696A21.13 21.13 0 0 0 379.09 75.4a25.938 25.938 0 0 1-37.202 23.26 25.94 25.94 0 0 1-12.098-12.09 30.179 30.179 0 0 0 60.32 1.52 37 37 0 0 1-64.81 22.76 39.231 39.231 0 1 0 36.82-53.07zM246.39 57.81a39.218 39.218 0 0 0-27.852 66.903 39.22 39.22 0 0 0 27.712 11.537 38.5 38.5 0 0 0 16.9-3.73 7.36 7.36 0 0 0 3.45-6.06 14.783 14.783 0 0 0-14.008-14.674 14.78 14.78 0 0 0-15.462 13.134c0 .51-.08 1-.08 1.54 0-.52 0-1 .08-1.54a18.14 18.14 0 0 1 14.835-16.253 18.13 18.13 0 0 1 11.489 1.696 18.13 18.13 0 0 1 8.106 8.317 21.132 21.132 0 0 0-42.26-.32 25.93 25.93 0 0 1 49.28-10.9 30.18 30.18 0 0 0-29.45-30.08A30.183 30.183 0 0 0 218.26 106a36.999 36.999 0 0 1 64.82-22.79 39.271 39.271 0 0 0-36.58-25.4z"/><path fill="#454545" d="M76.4 360c1.15 3.12 1.64 4.33 2.25 5.76.64-1.43 1.11-2.64 1.94-5 2-5.45 3.33-9.18 3.87-10.94L85.9 345l.18-.57a6.7 6.7 0 0 0 1.74.25 7.2 7.2 0 0 0 1.8-.25c.25 1.09.36 1.57.79 3.15.62 2 1.81 5.76 2.22 6.79l1.87 5.29c.42 1.07.89 2.33 1.31 3.5q.43 1.361 1 2.67a1.7 1.7 0 0 1 .22-.52l2.18-5.3 2.1-5.71 1.85-5.05c.92-2.42 1.34-3.5 1.89-4.82l.59.13c.346.087.703.127 1.06.12a8.4 8.4 0 0 0 2-.25l-.33.64c-.9 1.73-2.1 4.31-3.62 7.68-1.66 3.79-2.93 6.55-3.47 7.87l-2.23 5.58c-1.27 3.29-1.68 4.45-2.21 6.14a3 3 0 0 0-1.33-.25 3.4 3.4 0 0 0-1.39.25 53 53 0 0 0-1.73-6l-1.7-4.82-1.69-5.16c-.78-2.23-1.43-3.78-2.25-5.65-.46.9-.88 2.06-2.14 5.48L82.83 361l-1.92 5.4c-.91 2.59-1.5 4.39-1.74 5.3l-.19.61a7 7 0 0 0-1.43-.2 7 7 0 0 0-1.44.2l-.18-.61c-1.4-4.57-1.74-5.76-3.62-10.77-2.34-6.43-3-8-4.08-10.62-1.44-3.51-1.93-4.7-2.35-5.91l.66.13c.85.06 1.5.12 1.93.12s1-.06 2-.12c.18 0 .48 0 .84-.13.25.93.42 1.65.91 3.2.3 1 .3 1.09 1.33 4.1.77 2.27 1 3.11 1.07 3.3zM217.27 339.24a3.5 3.5 0 0 0-.07-.61 18.4 18.4 0 0 0 5-2l.2.18c-.27 2.1-.45 5.51-.5 8.3l6.44-.12c-.146.38-.227.783-.24 1.19.01.391.091.778.24 1.14h-6.39l-.05.4v4.53l-.08 4.86v5.42c0 6.36 1.14 8.41 4.67 8.41a9.1 9.1 0 0 0 2.59-.41v1.39a17.6 17.6 0 0 1-5 1c-4.2 0-6.8-2.83-6.8-7.36 0-.64.07-2.07.13-3.65 0-.89 0-2.4.1-4.46l.14-4.81V350a15.6 15.6 0 0 0-.14-2.76H217c-1.76 0-2.6 0-3.34.06a4.3 4.3 0 0 0 .2-1.09 5.7 5.7 0 0 0-.2-1.18h3.93v-.55c0-.31-.06-1.14-.14-2.47zM259.05 356.59l-.36.83c-.71 1.69-1.32 3.08-1.73 4.15l-1.38 3.82c-.68 1.83-1.16 3-1.28 3.52l-.91 2.89a3 3 0 0 0-.18.49 8.4 8.4 0 0 0-2.08-.25 9 9 0 0 0-2.16.25l.4-.8c1.39-2.88 3.56-7.5 5.72-12.31l6.36-14.3c1.93-4.21 2.95-6.5 3.3-7.23l2.42-5.5.37-.75h1.13l.25.55c.76 1.87 1.68 3.91 2.75 6.56.67 1.62 1.15 2.89 1.8 4.39.85 1.91.9 2.12 1.27 2.93l2.66 6.17 2.89 6.86 2.92 6.73c.909 2.3 1.94 4.55 3.09 6.74a26 26 0 0 0-3.56-.25 11.2 11.2 0 0 0-2.45.25 6 6 0 0 1-.2-.55l-.9-2.46-1.09-2.89c-.12-.34-.7-1.86-1.67-4.15l-1.8-4.45-.49-1.26-1-2.46-6.43-14.89-6.56 14.89zM294.52 334.85c-.09-3.57-.14-5.18-.25-6.5.809.135 1.63.195 2.45.18.913.011 1.826-.049 2.73-.18a65 65 0 0 0-.3 6.68l-.14 7.2c-.06 3.14-.06 5.59-.06 7.45 0 .87 0 1.5.06 4.69v3.12l.14 7.34a66 66 0 0 0 .34 7.46 22 22 0 0 0-2.89-.25c-.846.009-1.689.093-2.52.25l.07-.66c.23-3.74.37-6.85.42-11 .07-2.16.07-4 .07-7.09v-11.36zM583 334.85c-.07-3.57-.13-5.18-.24-6.5.816.135 1.643.195 2.47.18.903.011 1.806-.049 2.7-.18-.17 1.87-.24 3.6-.31 6.68l-.1 7.2c-.06 3.14-.06 5.59-.06 7.45 0 .87 0 1.5.06 4.69v3.12l.1 7.34a71 71 0 0 0 .37 7.46 22 22 0 0 0-2.89-.25 14.5 14.5 0 0 0-2.53.25l.08-.66c.22-3.74.35-6.85.42-11v-18.45zM596.84 334.85c-.06-3.57-.13-5.18-.25-6.5.816.134 1.643.195 2.47.18a17 17 0 0 0 2.71-.18c-.19 1.87-.25 3.6-.31 6.68l-.1 7.2c-.08 3.14-.08 5.59-.08 7.45 0 .87 0 1.5.08 4.69v3.12l.1 7.34a71 71 0 0 0 .35 7.46 22 22 0 0 0-2.88-.25c-.842.008-1.683.091-2.51.25l.08-.66c.21-3.74.34-6.85.4-11 .06-2.16.06-4 .06-7.09v-11.36zM344.41 339.05a7.877 7.877 0 0 0-7.54-5.29 7.06 7.06 0 0 0-6.71 4.348 7.1 7.1 0 0 0-.54 2.762 7 7 0 0 0 3.23 5.92 34.6 34.6 0 0 0 6.51 3c6.29 2.45 8.81 5.4 8.81 10.33 0 7.46-6.11 13.05-14.17 13.05a15.7 15.7 0 0 1-10-3.31l.13-.44c.55-1.588.909-3.237 1.07-4.91h.62a10.54 10.54 0 0 0 9.17 6 8.16 8.16 0 0 0 8.54-8.29c0-4-2-6.12-8.22-8.52-4.33-1.68-6.25-2.79-7.71-4.45a10 10 0 0 1-2.59-6.8c0-6.62 5.17-11.08 12.76-11.08a14 14 0 0 1 8.83 2.79 19.7 19.7 0 0 0-1.63 4.87zM361 349v.9a10 10 0 0 1 9.56-5.85c6 0 9.61 3.8 9.61 9.87 0 .89 0 2.17-.12 3.65-.05 2.22-.12 6.27-.12 10.19 0 2.14 0 2.93.12 4.48a7.6 7.6 0 0 0-2.32-.22 12.5 12.5 0 0 0-2.66.22c.3-3.1.59-9.16.59-13.33 0-4.69-.17-6.5-.87-8.23a6.58 6.58 0 0 0-6.15-3.73 7.15 7.15 0 0 0-6.49 3.8c-.9 1.83-1.15 3.65-1.15 8.33 0 3.07.06 7.7.11 10.11.08 1.12.08 1.68.14 3a16 16 0 0 0-2.3-.22c-.35 0-.94.06-1.86.11a4 4 0 0 1-.78.11c.31-3.42.44-7.93.49-14l.05-8.11v-5.64c0-1.33 0-3.32-.05-7.16a75 75 0 0 0-.29-9c.857.128 1.723.188 2.59.18q1.262.009 2.51-.18c-.19 1.81-.31 3.3-.36 5.61l-.14 5.28-.05 4.84zM426 347.4c-.06 1.15-.11 1.87-.11 3.17 2-4.07 5-6.53 8-6.53a3.8 3.8 0 0 1 1.8.35 18 18 0 0 0-.49 3.48q.024.578.12 1.15l-.43.25a4.42 4.42 0 0 0-2.83-1 5.87 5.87 0 0 0-4.79 2.69c-1 1.61-1.28 3.08-1.28 6.67l.01 5.57c0 .44 0 1.87.06 4.1.08 2.46.08 3.53.2 5a10.7 10.7 0 0 0-2-.22q-1.387.026-2.76.22v-.59l.24-6.49c.07-1.5.07-3.68.07-6.31s0-4.8-.07-6.12l-.06-4.28c-.12-2.83-.12-3.17-.18-4.09.788.181 1.592.281 2.4.3a11.6 11.6 0 0 0 2.41-.3l-.06.68zM18.3 350.58c6.55-1.68 9.74-4.92 9.74-10a7.65 7.65 0 0 0-5.95-7.81 34 34 0 0 0-9-.79c-1.55 0-2.89 0-4.1.07-1.55.05-2.56.05-2.87.05a27 27 0 0 1-2.91-.1c.17 2.84.17 3.66.23 9.07l.14 4.52v5.51c0 11.79-.06 15.17-.49 20.52l-.06.64c.813-.165 1.64-.252 2.47-.26.24 0 1.38 0 2.5.12.31 0 1 0 1.82.07h2.82c4.58 0 8-.64 10.83-2a11.54 11.54 0 0 0 6.13-10c0-5.51-4.23-9.08-11.3-9.68m3.54 16.22c-1.74 2.23-4.5 3.25-8.89 3.25a30.4 30.4 0 0 1-4.38-.29 43 43 0 0 1-.18-4.93l-.14-5.58v-2.6c.06-1.31.06-2.36.06-3.11v-11.45l.14-3.82c0-2.24.06-2.7.11-3.79a27 27 0 0 1 4.31-.37c6.75 0 10.06 2.47 10.06 7.45s-3.43 7.67-10 8.29a3.19 3.19 0 0 0-2.877 2.397A3.2 3.2 0 0 0 10 353.5s.49-1.55 3.19-1.49c2.035.105 4.05.458 6 1.05a7.605 7.605 0 0 1 4.94 7.49 9.84 9.84 0 0 1-2.23 6.25M61.69 370.41c-2.12 0-2.41-.83-2.41-7.38 0-1.82 0-3.56.13-5.41s.16-3.49.16-4.51c0-5.78-3.53-9.21-9.48-9.21-3.43 0-5.18.62-9.21 3 0 0-.23.14-.43.23a8.7 8.7 0 0 1 .2 1.65 8.5 8.5 0 0 1-.2 1.69h.62a8.07 8.07 0 0 1 7.29-4.16c4.13 0 6.72 2.7 6.72 7.09v4.81c-.06 1.4-.13 5.47-.13 7.63v.52a8.509 8.509 0 0 1-7 4 5.15 5.15 0 0 1-3.794-1.46 5.14 5.14 0 0 1-1.546-3.76 5.27 5.27 0 0 1 2.1-4.64c.92-.6 1.78-.93 4.59-1.6a5.067 5.067 0 0 0 4.38-5.7 4.68 4.68 0 0 1-3.91 3.8c-.72.11-1.52.27-2.51.39-6.61 1-9.44 3.44-9.44 8.3 0 4.46 3.14 7.2 8.12 7.2a12.12 12.12 0 0 0 9-4.2 3.57 3.57 0 0 0 4 3.56 9.45 9.45 0 0 0 4-.92v-1.18c-.387.13-.791.204-1.2.22M139.09 370.41c-2.12 0-2.4-.83-2.4-7.38 0-1.82.06-3.56.12-5.41s.16-3.49.16-4.51c0-5.78-3.53-9.21-9.5-9.21-3.42 0-5.16.62-9.19 3a4 4 0 0 0-.43.23q.16.817.19 1.65a10 10 0 0 1-.19 1.69h.62a8 8 0 0 1 7.25-4.16c4.17 0 6.75 2.7 6.75 7.09v4.81c-.06 1.4-.12 5.47-.12 7.63v.52a8.57 8.57 0 0 1-7 4 5.144 5.144 0 0 1-4.951-3.183 5.1 5.1 0 0 1-.389-2.037 5.34 5.34 0 0 1 2.09-4.64c.91-.6 1.8-.93 4.62-1.6a5.01 5.01 0 0 0 3.379-1.931 5.004 5.004 0 0 0 .971-3.769 4.681 4.681 0 0 1-3.93 3.79c-.72.11-1.53.27-2.5.39-6.62 1-9.46 3.44-9.46 8.3 0 4.46 3.14 7.2 8.12 7.2a12.17 12.17 0 0 0 9-4.2 3.57 3.57 0 0 0 1.193 2.687 3.57 3.57 0 0 0 2.807.873 9.5 9.5 0 0 0 4-.92v-1.18a4.6 4.6 0 0 1-1.2.22M207.19 370.41c-2.12 0-2.4-.83-2.4-7.38 0-1.82.05-3.56.1-5.41s.18-3.49.18-4.51c0-5.78-3.54-9.21-9.5-9.21-3.44 0-5.15.62-9.18 3q-.223.09-.42.23.136.82.16 1.65a12 12 0 0 1-.16 1.69h.6a8 8 0 0 1 7.25-4.16c4.17 0 6.74 2.7 6.74 7.09v4.81c-.06 1.4-.11 5.47-.11 7.63v.52a8.56 8.56 0 0 1-7 4 5.17 5.17 0 0 1-4.958-3.182 5.2 5.2 0 0 1-.392-2.038 5.34 5.34 0 0 1 .464-2.589 5.34 5.34 0 0 1 1.646-2.051c.93-.6 1.8-.93 4.61-1.6a5.07 5.07 0 0 0 4.35-5.7 4.66 4.66 0 0 1-3.92 3.79c-.74.11-1.55.27-2.51.39-6.63 1-9.45 3.44-9.45 8.3 0 4.46 3.15 7.2 8.12 7.2a12.2 12.2 0 0 0 9-4.2 3.57 3.57 0 0 0 1.193 2.687 3.57 3.57 0 0 0 2.807.873 9.7 9.7 0 0 0 4-.92v-1.18a4.5 4.5 0 0 1-1.21.22M412.28 370.41c-2.12 0-2.4-.83-2.4-7.38 0-1.82.05-3.56.11-5.41s.17-3.49.17-4.51c0-5.78-3.52-9.21-9.49-9.21-3.42 0-5.16.62-9.19 3q-.228.09-.43.23.138.82.17 1.65a12 12 0 0 1-.17 1.69h.61a8.05 8.05 0 0 1 7.26-4.16c4.15 0 6.73 2.7 6.73 7.09v4.81c0 1.4-.12 5.47-.12 7.63v.52a8.56 8.56 0 0 1-7 4 5.15 5.15 0 0 1-3.781-1.468 5.15 5.15 0 0 1-1.539-3.752 5.31 5.31 0 0 1 2.09-4.64c.91-.6 1.79-.93 4.59-1.6a5.01 5.01 0 0 0 3.379-1.931 5.004 5.004 0 0 0 .971-3.769 4.68 4.68 0 0 1-3.92 3.79c-.71.11-1.54.27-2.5.39-6.63 1-9.44 3.44-9.44 8.3 0 4.46 3.12 7.2 8.1 7.2a12.1 12.1 0 0 0 9-4.2 3.57 3.57 0 0 0 1.2 2.679 3.59 3.59 0 0 0 2.8.881 9.4 9.4 0 0 0 4-.92v-1.18a4.2 4.2 0 0 1-1.2.22M573.72 370.41c-2.12 0-2.41-.83-2.41-7.38 0-1.82.07-3.56.12-5.41s.17-3.49.17-4.51c0-5.78-3.54-9.21-9.5-9.21-3.44 0-5.16.62-9.19 3a3 3 0 0 0-.42.23q.141.82.18 1.65a13 13 0 0 1-.18 1.69h.6a8.07 8.07 0 0 1 7.27-4.16c4.14 0 6.72 2.7 6.72 7.09v4.81c-.06 1.4-.11 5.47-.11 7.63v.52a8.513 8.513 0 0 1-7 4 5.144 5.144 0 0 1-4.951-3.183 5.1 5.1 0 0 1-.389-2.037 5.27 5.27 0 0 1 2.1-4.64c.93-.6 1.8-.93 4.6-1.6a5.01 5.01 0 0 0 3.379-1.931 5.004 5.004 0 0 0 .971-3.769 4.681 4.681 0 0 1-3.93 3.79c-.73.11-1.55.27-2.5.39-6.61 1-9.44 3.44-9.44 8.3 0 4.46 3.12 7.2 8.11 7.2a12.12 12.12 0 0 0 9-4.2 3.56 3.56 0 0 0 3.95 3.56 9.4 9.4 0 0 0 4-.92v-1.18c-.381.13-.778.204-1.18.22M470.73 371.54c.06-2.57.06-5 .11-7.43l.07-4.68c0-16.17-13.78-15.63-13.78-15.63-7.51 0-12.5 5.88-12.5 14.72 0 8.51 4.93 14.32 12.32 14.32 4.22 0 6.86-1.48 9.5-5.3v.78l-.05 4.87-.13 5.46c-.06 2.28-.13 3.84-.3 5.89a17 17 0 0 1 2.55-.18q1.345.005 2.68.18a69 69 0 0 1-.55-9.55c0-.78 0-1.85.08-3.45m-12.38-.87c-5.54 0-8.49-4.23-8.49-12.08s3.14-12.34 8.53-12.34 8.42 4.46 8.42 11.79c0 8.3-2.88 12.63-8.46 12.63M147.64 345.37c-.08 2.58-.08 5-.11 7.44l-.09 4.68c0 16.17 13.8 15.65 13.8 15.65 7.52 0 12.49-5.93 12.49-14.73 0-8.55-4.91-14.33-12.32-14.33-4.21 0-6.86 1.46-9.51 5.31v-.79l.07-4.86.12-5.48c.07-2.28.14-3.85.31-5.9-.835.147-1.682.214-2.53.2a16 16 0 0 1-2.71-.2c.401 3.177.578 6.378.53 9.58 0 .77 0 1.86-.05 3.43m12.38.88c5.55 0 8.47 4.22 8.47 12.08s-3.13 12.34-8.53 12.34-8.41-4.45-8.41-11.79c0-8.31 2.88-12.63 8.47-12.63M499.93 349.61c-.06-2-.18-3.82-.38-5.55.891.171 1.794.272 2.7.3a6 6 0 0 0 1.05-.11c.38 0 .83-.13 1.36-.19-.13 1.59-.2 3.2-.2 4.79h.13c2.09-3.58 5.08-5.4 8.91-5.4 1.017 0 2.028.151 3 .45.919.29 1.793.703 2.6 1.23a7.9 7.9 0 0 1 2 1.89 6.2 6.2 0 0 1 1.14 2.37h.13a10.4 10.4 0 0 1 3.92-4.4 10.67 10.67 0 0 1 5.73-1.54c1.234-.01 2.462.172 3.64.54a7.8 7.8 0 0 1 2.91 1.66 8 8 0 0 1 1.92 3 12.2 12.2 0 0 1 .67 4.31v2.22c0 .81-.08 1.73-.11 2.79s-.08 2.26-.12 3.58-.05 2.89-.05 4.64v3.13c0 .99.07 2.07.17 3.24a9 9 0 0 0-1.35-.1h-2.59a9 9 0 0 0-1.34.1q.21-1.49.42-6c.15-3.05.22-7.26.22-12.7A11.5 11.5 0 0 0 536 351a6.3 6.3 0 0 0-1-2.28 5.4 5.4 0 0 0-1.93-1.52 6.7 6.7 0 0 0-3-.58 7.25 7.25 0 0 0-6 2.81 6.6 6.6 0 0 0-.75 1.33 7.5 7.5 0 0 0-.41 2c-.09.88-.18 2.17-.22 3.76s-.07 3.85-.07 6.67c0 1.73 0 3.31.1 4.72s.12 2.95.2 4.64c-.91-.07-1.81-.1-2.62-.1s-1.73 0-2.62.1c.19-2.2.33-4.43.4-6.7s.11-4.51.11-6.72v-4.39c0-1.05 0-1.9-.13-2.53q-.12-.781-.34-1.54-.24-.665-.57-1.29a5.35 5.35 0 0 0-2.08-2 5.7 5.7 0 0 0-2.89-.81c-2.65 0-4.59.85-5.82 2.57s-1.86 4.15-1.86 7.26v5.09c0 1.78 0 3.67.08 5.67s.19 3.76.4 5.35c-.92-.07-1.82-.1-2.7-.1s-1.77 0-2.69.1c.2-1.59.32-3.39.38-5.35s.1-3.89.1-5.67v-6.23c0-1.81 0-3.69-.1-5.66"/></g><defs><clipPath id="clip0_603_809"><path fill="#fff" d="M0 0h606v384.54H0z"/></clipPath></defs></svg>