<svg xmlns="http://www.w3.org/2000/svg" id="Layer_1" data-name="Layer 1" viewBox="0 0 100.68 49.5"><path d="M49.63 10.35 27.16 42.3s-3.49 6.42 2.65 6.42 52.39 6.42 69.63-17.51c3.77-5.23.42-24.7-31.4-30.35-6.9-.21-50.64-6.7-66.55 19.47-2.51 5.65-3.98 14.86 13.81 23.02 3.56-2.51 3.14-3.35 3.14-3.35l-9-5.79c-.74-.59-3.69-3.07-4.4-7.43-.56-3.42.58-6.1 1.05-7.08 1.47 3.77 1.05 12.56 15.7 16.53l2.16-3.42c-1.27-.19-5.97-1.07-9.62-5.29-4.12-4.75-3.91-10.26-3.84-11.39 3.14 3.56 1.26 10.67 16.95 13.19l1.53-3.35c-7.5-1-12.87-5.22-13.43-9.97-.12-.99-.11-2.7 1.02-4.89.67 1.47 2.2 4.3 5.3 6.63 4.19 3.15 8.61 3.4 10.19 3.42 2.51-2.72 2.09-4.19 2.09-4.19-6.26.48-10.98-2.03-11.72-5.23-.14-.62-.3-1.95.73-3.84 30.15-9.21 54.97-5.84 61.56 6.56 1.33 2.49 2.48 6.41 1.4 12.46a32.4 32.4 0 0 1-5.17 7.07c-12.51 12.9-32.1 10.92-36.34 10.4.21-5.02 21.14-32.23 20.93-33.28s-15.91-.77-15.91-.77Z" style="fill:#154a74;stroke-width:0"/></svg>