<svg xmlns="http://www.w3.org/2000/svg" id="Layer_1" data-name="Layer 1" viewBox="0 0 2443 1307.26"><path d="M2443 0H0v1307.26h2443zM488.6 1089.38c-65.27-38.61-121.2-88.5-164.5-146.71-179-240.66-105.35-565.16 164.5-724.8h97.72c-65.27 38.61-121.2 88.5-164.5 146.71-179 240.66-105.35 565.16 164.5 724.8zm498.37 0c-269.85 0-488.6-195.09-488.6-435.75s218.75-435.75 488.6-435.75h146.58c-269.85 0-488.6 195.09-488.6 435.75s218.75 435.75 488.6 435.75zm234.53-784.35c215.88 0 390.88 156.07 390.88 348.6s-175 348.6-390.88 348.6-390.88-156.07-390.88-348.6 175-348.6 390.88-348.6m83.06 784.35c269.85 0 488.6-195.09 488.6-435.75s-218.75-435.75-488.6-435.75h146.58c269.85 0 488.6 195.09 488.6 435.75s-218.75 435.75-488.6 435.75zm552.12 0c269.85-159.64 343.5-484.14 164.5-724.8-43.3-58.21-99.23-108.09-164.5-146.71h97.72c269.85 159.64 343.5 484.14 164.5 724.8-43.3 58.21-99.23 108.09-164.5 146.71z" style="stroke-width:0"/></svg>