<svg xmlns="http://www.w3.org/2000/svg" width="249" height="37" fill="none"><path fill="#fff" fill-rule="evenodd" d="M96.24 26.097h-1.826c-.13 0-.26-.129-.26-.258v-5.283c0-1.417.13-2.706.13-3.736 0-.13.13-.516 0-.516s-.13.258-.13.258c-.39.515-.913 1.288-1.174 1.933l-4.693 6.442h-.262l-4.695-6.442c-.26-.645-.782-1.547-1.173-1.933-.13-.13-.13-.258-.13-.258-.131.129-.131.387-.131.516.13 1.03.13 2.19.13 3.736v5.283c0 .13 0 .258-.13.258H80.07c-.13 0-.13-.129-.13-.258V10.377c0-.13.13-.258.26-.13 1.436 2.063 6.781 9.665 7.825 11.083 0 .128.131.128.262 0 1.043-1.418 6.39-9.02 7.823-11.082.13-.13.39 0 .39.129v15.462c0 .13-.13.258-.26.258M112.54 26.484c-4.173 0-6.39-2.449-6.39-6.83v-8.89c0-.13.131-.259.261-.259h1.565c.13 0 .261.13.261.258v8.891q0 4.64 4.303 4.639 4.304 0 4.303-4.639v-8.89c0-.13.131-.259.261-.259h1.696c.13 0 .13.13.13.258v8.891c0 4.253-2.346 6.83-6.39 6.83M138.099 17.722c-.13-.13-.26-.387 0-.516.783-.644 1.435-1.675 1.435-2.835 0-2.319-1.826-3.865-4.564-3.865h-5.087c-.129 0-.26.129-.26.258V25.84c0 .128.131.257.26.257h5.477c3.129 0 5.217-1.804 5.217-4.639 0-1.803-1.174-3.092-2.478-3.736m-6.259-5.026c0-.129.129-.257.26-.257h2.479c1.695 0 2.867.902 2.867 2.19 0 1.289-1.303 2.19-2.867 2.19H132.1c-.131 0-.26-.128-.26-.386zm3.389 11.469H132.1c-.131 0-.26-.13-.26-.387v-4.897c0-.128.129-.257.26-.257h3c1.826 0 3.13 1.16 3.13 2.835 0 1.546-1.174 2.706-3.001 2.706M178.914 10.506h-5.737c-.129 0-.261.128-.261.257V25.84c0 .13.132.258.261.258h5.868c4.564 0 7.954-3.35 7.954-7.731 0-4.51-3.39-7.86-8.085-7.86m.131 13.53h-3.651c-.13 0-.26-.13-.26-.258V12.825c0-.129.13-.258.26-.258h3.52c3.391 0 5.869 2.448 5.869 5.799 0 3.737-2.869 5.67-5.738 5.67M226.641 26.097h-10.039c-.131 0-.131-.129-.131-.258V10.763c0-.129 0-.258.131-.258h1.824c.132 0 .262.13.262.258v13.015c0 .129 0 .258.129.258h8.608c.129 0 .26.128.26.257l-.783 1.675c-.13 0-.13.13-.261.13M164.31 26.097h-1.957l-.129-.129-1.174-2.448-.13-.129h-6.781c-.262 0-.262-.129-.262-.129l.913-1.675c0-.129 0-.129.13-.129h4.826c.13 0 .261-.128.131-.257l-3.391-7.087h-.13l-5.869 11.854c0 .13 0 .13-.131.13h-1.826c-.13 0-.26-.13-.13-.259l7.825-15.72q.196-.194.391 0l7.825 15.72c.129.13 0 .258-.131.258M209.038 26.097h-1.827c-.13 0-.13-.129-.13-.129l-1.303-2.448s0-.129-.13-.129h-6.781c-.131 0-.262-.129-.131-.129l.782-1.675c0-.129.13-.129.13-.129h4.956c.13 0 .13-.128.13-.257l-3.52-7.087h-.131l-5.738 11.854c0 .13-.131.13-.261.13h-1.826c-.13 0-.13-.13-.13-.259l7.825-15.72q.196-.194.391 0l7.954 15.72c0 .13-.131.258-.26.258" clip-rule="evenodd"/><mask id="mask0_1179_3132" width="17" height="17" x="232" y="10" maskUnits="userSpaceOnUse" style="mask-type:alpha"><path fill="#fff" d="M232.847 10.022h16.147v16.075h-16.147z"/></mask><g mask="url('#mask0_1179_3132')"><path fill="#fff" fill-rule="evenodd" d="M248.81 26.097h-1.826c-.13 0-.26-.129-.26-.129l-1.174-2.448s0-.129-.13-.129h-6.781c-.131 0-.261-.129-.261-.129l.913-1.675c0-.129.13-.129.13-.129h4.825c.13 0 .261-.128.13-.257l-3.39-7.087h-.131l-5.868 11.854c0 .13-.13.13-.13.13h-1.827c-.129 0-.259-.13-.129-.259l7.824-15.72q.195-.194.391 0l7.824 15.72c.131.13 0 .258-.13.258" clip-rule="evenodd"/></g><path fill="#00B1B0" fill-rule="evenodd" d="M56.62 18.317c-.13 2.19 3 1.289 3.913.773 1.043-.644 1.565-1.03 2.086-2.061 1.174-1.804 0-2.835-.782-2.964-.522 0-1.565.129-2.347 1.546-.392.773-.522 1.675-.522 2.449-1.174.644-1.174-.645-1.174-1.16 0-.258 0-.773.13-1.16 0-.902-.26-.773-.912-.129-.391.387-3.26 2.706-7.824 5.155-4.564 2.319-11.084 4.767-21.386 7.087-12.258 2.835-24.255 2.19-26.21-.902-1.826-3.093 7.693-8.634 8.475-9.02.522-.387-.13-.516-.652-.387 0 0-11.345 6.185-9.128 10.566 2.348 4.51 13.953 4.383 26.341 1.804 20.473-4.38 28.95-11.854 29.862-12.499.522-.257.261.258.13.902" clip-rule="evenodd"/><path fill="#00B1B0" fill-rule="evenodd" d="M46.058 10.2c-2.74.258-4.303.773-5.086 1.03-.782.258-1.434.645-1.434 1.031 0 .13.13.258.913.13.913-.13 5.347-.903 7.954-.903 3.26 0 5.086.387 5.737 1.289.783.902-2.085 4.51-12.387 7.989-10.955 3.737-19.43 5.154-30.775 6.056-.782.13-1.173.516.26.645 1.957.386 12.519.644 26.21-3.737 13.825-4.381 19.171-9.278 17.605-11.726-.65-1.16-3.52-2.32-8.997-1.804" clip-rule="evenodd"/><path fill="#00B1B0" fill-rule="evenodd" d="M24.15 5.69c2.218-1.547 7.564-3.093 12.78-.516 7.563 3.608 10.3 12.37 6.39 19.329-3.912 6.571-9.91 7.216-12.128 7.345-1.955.128-5.867-.13-7.823-.387-.913-.129-.913.387-.392.515 2.478.773 9.52 2.706 16.04-1.03 7.301-4.124 8.867-10.696 7.172-17.525-1.957-7.474-8.867-11.597-16.04-11.21-4.172.128-6.39 2.319-6.65 3.092-.26.644.13.644.652.387M20.76 8.138c.652-.645.913-1.031 1.174-1.289.26-.129-.391-.644-1.695 0-1.174.773-4.304 4.381-5.086 8.634-1.043 5.54 1.956 10.437 3.782 11.983 1.825 1.546 1.956.644 1.565.387-.261-.387-2.739-2.964-3.521-6.83-.652-2.963-.522-4.896.39-7.602.783-2.32 3-4.897 3.391-5.283" clip-rule="evenodd"/><path fill="#00B1B0" fill-rule="evenodd" d="M39.929 13.808c-5.607-3.093-12.649-5.026-16.691-5.67-.913-.129-1.565.773-.652.902 5.998 1.16 10.17 2.19 17.343 5.283 0 .129.26.129.391 0 0-.258-.13-.386-.391-.515M43.45 17.93c-8.085-4.251-18.647-5.926-23.08-6.442-.914-.129-1.435.902-.523 1.03 10.693 1.29 17.865 3.351 23.342 5.928.13 0 .261.13.392 0 .13-.129.13-.386-.13-.515M19.196 16.514c8.606.257 17.342 2.19 20.602 3.092.262.13.392 0 .392-.129 0-.128 0-.257-.392-.386-11.214-3.35-18.907-3.608-20.472-3.608-.913 0-1.434 1.03-.13 1.03" clip-rule="evenodd"/><path fill="#00B1B0" fill-rule="evenodd" d="m31.193 3.37.39-.129v-.387h-.13c-1.825 0-3.65 1.418-5.216 3.995-1.825 2.835-2.868 6.83-2.999 11.21-.26 9.665 2.739 18.17 6.26 18.17.912 0 1.955-.515 2.216-1.804 0-.13 0-.645-.26-.645-.131 0-.261.258-.392.516-.26.644-.913.773-1.565.773-1.173 0-2.477-1.675-3.39-5.155-1.043-3.736-1.826-7.989-1.565-12.37.391-9.277 4.173-14.303 6.65-14.174" clip-rule="evenodd"/><path fill="#00B1B0" fill-rule="evenodd" d="M38.625 32.878c0-.129-.13-.385-.26-.385h-.13c-.13 0-.13.127-.13.385-.132.516-.263.902-.783 1.031-.13 0-.393 0-.523-.129-1.694-1.16-4.434-7.731-5.346-15.591-1.044-8.763 1.173-14.432 2.74-14.819l.259-.258v-.128c-.13 0-.26.128-.39.128l-.13-.128c-2.61.773-4.566 7.73-3.391 17.009.912 7.86 3.52 13.4 5.607 14.69.26.257.651.386.913.386h.391c.652-.258 1.173-1.031 1.173-2.19" clip-rule="evenodd"/><path fill="#00B1B0" fill-rule="evenodd" d="M37.582 20.122c0-.258-.13-.387-.26-1.16-.913-3.35-1.696-8.505-.913-12.37v-.258c0-.258 0-.387-.13-.387s-.393.13-.393.387v.129c-.911 3.994-.39 9.922.783 13.916.26 1.031 1.173.516.913-.258M21.934 4.53c-.13-.644-.652-1.16-1.304-1.16s-1.174.644-1.043 1.289c0 .644.521 1.16 1.173 1.16.652-.13 1.174-.645 1.174-1.29M58.056 23.085c0-.644-.522-1.03-1.174-1.03-.653 0-1.174.386-1.174 1.03 0 .645.52 1.289 1.174 1.289.652 0 1.174-.644 1.174-1.289" clip-rule="evenodd"/><mask id="mask1_1179_3132" width="4" height="4" x="21" y="0" maskUnits="userSpaceOnUse" style="mask-type:alpha"><path fill="#fff" d="M21.282.278h3.13v2.964h-3.13z"/></mask><g mask="url('#mask1_1179_3132')"><path fill="#00B1B0" fill-rule="evenodd" d="M24.411 1.566c0-.902-.782-1.417-1.695-1.417-.782.129-1.434.773-1.434 1.546.13.902.782 1.547 1.695 1.547.782 0 1.434-.774 1.434-1.676" clip-rule="evenodd"/></g><path fill="#00B1B0" fill-rule="evenodd" d="M62.228 28.626c-.26-.773-1.043-2.062-2.347-3.221-.782-.516-1.434-.13-.782.386s5.085 5.154-1.174 5.542c-2.086 0-6.13-.259-13.953-2.45-.391-.128-.914-.257-1.434-.386-.654-.129-1.304-.387-1.956-.515-.913-.387-1.958-.645-3-1.031-.914-.387-1.956-.644-2.999-1.16-.652-.258-1.305-.386-1.826-.644-.13 0-.26-.129-.26-.129-.522-.258-1.044-.387-1.565-.644-.261-.13-.522-.13-.784-.258a201 201 0 0 1-5.475-2.577l-1.565-.773c-2.217-1.16-4.564-2.32-6.52-3.737-.652-.258-1.174-.644-1.696-1.031-1.044-.773-2.608-1.933-3.65-2.577-7.042-5.927-.131-5.927 7.302-5.025.521 0 1.043.128 1.564.257l.652-1.16c-.392-.128-.782-.128-1.173-.257-5.607-.773-9.52-.387-11.084.515-1.175.773-2.478 2.706 1.956 6.572 1.173 1.03 2.738 2.19 4.303 3.221.652.387 1.174.902 1.826 1.289 1.956 1.288 4.303 2.577 6.65 3.866.522.257 1.043.515 1.565.902.782.257 1.565.644 2.347 1.03l2.347 1.16c.651.258 1.174.516 1.826.644 0 .13.13.13.13.13.522.257 1.044.386 1.565.644.39.128.913.386 1.434.644 1.435.515 2.87 1.03 4.303 1.417.653.258 1.305.387 1.826.645.652.128 1.303.387 1.956.515 8.998 2.32 13.953 2.706 16.821 2.063.13 0 3.39-.775 2.87-3.867" clip-rule="evenodd"/></svg>